<mxfile host="app.diagrams.net" modified="2023-12-02T05:01:06.794Z" agent="Mozilla/5.0 (Windows NT 10.0; Win64; x64) AppleWebKit/537.36 (KHTML, like Gecko) Chrome/119.0.0.0 Safari/537.36" etag="bTuai9o0KlXG1ET6-05-" version="22.1.5" type="device" pages="2">
  <diagram name="ER" id="OxHdGrjWC4HtzLj_jFQd">
    <mxGraphModel dx="1560" dy="697" grid="1" gridSize="10" guides="1" tooltips="1" connect="1" arrows="1" fold="1" page="1" pageScale="1" pageWidth="1000" pageHeight="900" math="0" shadow="0">
      <root>
        <mxCell id="Fdt8p3Iun5FcVABfMerW-0" />
        <mxCell id="Fdt8p3Iun5FcVABfMerW-1" parent="Fdt8p3Iun5FcVABfMerW-0" />
        <mxCell id="Fdt8p3Iun5FcVABfMerW-2" style="edgeStyle=orthogonalEdgeStyle;rounded=0;hachureGap=4;orthogonalLoop=1;jettySize=auto;html=1;entryX=0;entryY=0.5;entryDx=0;entryDy=0;fontFamily=Helvetica;fontSize=16;" edge="1" parent="Fdt8p3Iun5FcVABfMerW-1" source="Fdt8p3Iun5FcVABfMerW-4" target="Fdt8p3Iun5FcVABfMerW-9">
          <mxGeometry relative="1" as="geometry" />
        </mxCell>
        <mxCell id="Fdt8p3Iun5FcVABfMerW-3" style="edgeStyle=orthogonalEdgeStyle;rounded=0;hachureGap=4;orthogonalLoop=1;jettySize=auto;html=1;exitX=0;exitY=0.5;exitDx=0;exitDy=0;entryX=1;entryY=0.5;entryDx=0;entryDy=0;fontFamily=Architects Daughter;fontSource=https%3A%2F%2Ffonts.googleapis.com%2Fcss%3Ffamily%3DArchitects%2BDaughter;fontSize=16;" edge="1" parent="Fdt8p3Iun5FcVABfMerW-1" source="Fdt8p3Iun5FcVABfMerW-4" target="Fdt8p3Iun5FcVABfMerW-20">
          <mxGeometry relative="1" as="geometry" />
        </mxCell>
        <mxCell id="Fdt8p3Iun5FcVABfMerW-4" value="unidad" style="rounded=0;whiteSpace=wrap;html=1;hachureGap=4;fontFamily=Helvetica;fontSize=23;" vertex="1" parent="Fdt8p3Iun5FcVABfMerW-1">
          <mxGeometry x="391.25" y="528.75" width="100" height="40" as="geometry" />
        </mxCell>
        <mxCell id="Fdt8p3Iun5FcVABfMerW-5" style="edgeStyle=orthogonalEdgeStyle;rounded=0;hachureGap=4;orthogonalLoop=1;jettySize=auto;html=1;exitX=1;exitY=0.5;exitDx=0;exitDy=0;entryX=0;entryY=0.5;entryDx=0;entryDy=0;fontFamily=Architects Daughter;fontSource=https%3A%2F%2Ffonts.googleapis.com%2Fcss%3Ffamily%3DArchitects%2BDaughter;fontSize=16;" edge="1" parent="Fdt8p3Iun5FcVABfMerW-1" source="Fdt8p3Iun5FcVABfMerW-7" target="Fdt8p3Iun5FcVABfMerW-17">
          <mxGeometry relative="1" as="geometry" />
        </mxCell>
        <mxCell id="Fdt8p3Iun5FcVABfMerW-6" style="edgeStyle=orthogonalEdgeStyle;rounded=0;hachureGap=4;orthogonalLoop=1;jettySize=auto;html=1;exitX=0;exitY=0.75;exitDx=0;exitDy=0;entryX=0.5;entryY=0;entryDx=0;entryDy=0;fontFamily=Architects Daughter;fontSource=https%3A%2F%2Ffonts.googleapis.com%2Fcss%3Ffamily%3DArchitects%2BDaughter;fontSize=16;" edge="1" parent="Fdt8p3Iun5FcVABfMerW-1" source="Fdt8p3Iun5FcVABfMerW-7" target="Fdt8p3Iun5FcVABfMerW-23">
          <mxGeometry relative="1" as="geometry">
            <Array as="points">
              <mxPoint x="641.25" y="568.75" />
            </Array>
          </mxGeometry>
        </mxCell>
        <mxCell id="Fdt8p3Iun5FcVABfMerW-7" value="recurso" style="rounded=0;whiteSpace=wrap;html=1;hachureGap=4;fontFamily=Helvetica;fontSize=23;" vertex="1" parent="Fdt8p3Iun5FcVABfMerW-1">
          <mxGeometry x="706.25" y="538.75" width="190" height="40" as="geometry" />
        </mxCell>
        <mxCell id="Fdt8p3Iun5FcVABfMerW-8" style="edgeStyle=orthogonalEdgeStyle;rounded=0;hachureGap=4;orthogonalLoop=1;jettySize=auto;html=1;exitX=1;exitY=0.5;exitDx=0;exitDy=0;entryX=0;entryY=0.25;entryDx=0;entryDy=0;fontFamily=Helvetica;fontSize=16;" edge="1" parent="Fdt8p3Iun5FcVABfMerW-1" source="Fdt8p3Iun5FcVABfMerW-9" target="Fdt8p3Iun5FcVABfMerW-7">
          <mxGeometry relative="1" as="geometry" />
        </mxCell>
        <mxCell id="Fdt8p3Iun5FcVABfMerW-9" value="registra" style="rhombus;whiteSpace=wrap;html=1;hachureGap=4;fontFamily=Helvetica;fontSize=20;rounded=0;" vertex="1" parent="Fdt8p3Iun5FcVABfMerW-1">
          <mxGeometry x="531.25" y="516.25" width="95" height="65" as="geometry" />
        </mxCell>
        <mxCell id="Fdt8p3Iun5FcVABfMerW-10" value="M:M" style="text;html=1;align=center;verticalAlign=middle;whiteSpace=wrap;rounded=0;fontSize=20;fontFamily=Helvetica;" vertex="1" parent="Fdt8p3Iun5FcVABfMerW-1">
          <mxGeometry x="548.75" y="488.75" width="60" height="30" as="geometry" />
        </mxCell>
        <mxCell id="Fdt8p3Iun5FcVABfMerW-11" value="auditorio" style="rounded=0;whiteSpace=wrap;html=1;hachureGap=4;fontFamily=Helvetica;fontSize=20;" vertex="1" parent="Fdt8p3Iun5FcVABfMerW-1">
          <mxGeometry x="1011.25" y="488.75" width="100" height="40" as="geometry" />
        </mxCell>
        <mxCell id="Fdt8p3Iun5FcVABfMerW-12" value="salon" style="rounded=0;whiteSpace=wrap;html=1;hachureGap=4;fontFamily=Helvetica;fontSize=20;" vertex="1" parent="Fdt8p3Iun5FcVABfMerW-1">
          <mxGeometry x="1011.25" y="588.75" width="80" height="40" as="geometry" />
        </mxCell>
        <mxCell id="Fdt8p3Iun5FcVABfMerW-13" value="laboratorio" style="rounded=0;whiteSpace=wrap;html=1;hachureGap=4;fontFamily=Helvetica;fontSize=20;" vertex="1" parent="Fdt8p3Iun5FcVABfMerW-1">
          <mxGeometry x="1011.25" y="538.75" width="110" height="40" as="geometry" />
        </mxCell>
        <mxCell id="-EgwV7YAkDDysSDa80SV-2" style="edgeStyle=orthogonalEdgeStyle;rounded=0;orthogonalLoop=1;jettySize=auto;html=1;exitX=1;exitY=0.5;exitDx=0;exitDy=0;entryX=0;entryY=0.5;entryDx=0;entryDy=0;" edge="1" parent="Fdt8p3Iun5FcVABfMerW-1" source="Fdt8p3Iun5FcVABfMerW-17" target="Fdt8p3Iun5FcVABfMerW-11">
          <mxGeometry relative="1" as="geometry">
            <Array as="points">
              <mxPoint x="981.25" y="560" />
              <mxPoint x="981.25" y="509" />
            </Array>
          </mxGeometry>
        </mxCell>
        <mxCell id="UYdT5KM9B5tP5GZX3k2u-0" style="edgeStyle=orthogonalEdgeStyle;rounded=0;orthogonalLoop=1;jettySize=auto;html=1;exitX=1;exitY=0.5;exitDx=0;exitDy=0;entryX=0;entryY=0.5;entryDx=0;entryDy=0;" edge="1" parent="Fdt8p3Iun5FcVABfMerW-1" source="Fdt8p3Iun5FcVABfMerW-17" target="Fdt8p3Iun5FcVABfMerW-13">
          <mxGeometry relative="1" as="geometry" />
        </mxCell>
        <mxCell id="UYdT5KM9B5tP5GZX3k2u-1" style="edgeStyle=orthogonalEdgeStyle;rounded=0;orthogonalLoop=1;jettySize=auto;html=1;exitX=1;exitY=0.5;exitDx=0;exitDy=0;entryX=0;entryY=0.5;entryDx=0;entryDy=0;" edge="1" parent="Fdt8p3Iun5FcVABfMerW-1" source="Fdt8p3Iun5FcVABfMerW-17" target="Fdt8p3Iun5FcVABfMerW-12">
          <mxGeometry relative="1" as="geometry">
            <Array as="points">
              <mxPoint x="981.25" y="560" />
              <mxPoint x="981.25" y="609" />
            </Array>
          </mxGeometry>
        </mxCell>
        <mxCell id="Fdt8p3Iun5FcVABfMerW-17" value="" style="triangle;whiteSpace=wrap;html=1;hachureGap=4;fontFamily=Architects Daughter;fontSource=https%3A%2F%2Ffonts.googleapis.com%2Fcss%3Ffamily%3DArchitects%2BDaughter;fontSize=20;rotation=0;rounded=0;" vertex="1" parent="Fdt8p3Iun5FcVABfMerW-1">
          <mxGeometry x="933.75" y="539.5" width="30" height="40" as="geometry" />
        </mxCell>
        <mxCell id="Fdt8p3Iun5FcVABfMerW-18" value="horario_recurso" style="rounded=0;whiteSpace=wrap;html=1;hachureGap=4;fontFamily=Helvetica;fontSize=20;" vertex="1" parent="Fdt8p3Iun5FcVABfMerW-1">
          <mxGeometry x="561.25" y="778.75" width="160" height="40" as="geometry" />
        </mxCell>
        <mxCell id="Fdt8p3Iun5FcVABfMerW-19" style="edgeStyle=orthogonalEdgeStyle;rounded=0;hachureGap=4;orthogonalLoop=1;jettySize=auto;html=1;entryX=1;entryY=0.5;entryDx=0;entryDy=0;fontFamily=Architects Daughter;fontSource=https%3A%2F%2Ffonts.googleapis.com%2Fcss%3Ffamily%3DArchitects%2BDaughter;fontSize=16;" edge="1" parent="Fdt8p3Iun5FcVABfMerW-1" source="Fdt8p3Iun5FcVABfMerW-20" target="_LIqgTDhozhLzIGRH-Xo-0">
          <mxGeometry relative="1" as="geometry" />
        </mxCell>
        <mxCell id="Fdt8p3Iun5FcVABfMerW-20" value="establece" style="rhombus;whiteSpace=wrap;html=1;hachureGap=4;fontFamily=Architects Daughter;fontSource=https%3A%2F%2Ffonts.googleapis.com%2Fcss%3Ffamily%3DArchitects%2BDaughter;fontSize=20;rounded=0;" vertex="1" parent="Fdt8p3Iun5FcVABfMerW-1">
          <mxGeometry x="231.25" y="513.75" width="110" height="70" as="geometry" />
        </mxCell>
        <mxCell id="Fdt8p3Iun5FcVABfMerW-21" value="1:M" style="text;html=1;align=center;verticalAlign=middle;whiteSpace=wrap;rounded=0;fontSize=20;fontFamily=Helvetica;" vertex="1" parent="Fdt8p3Iun5FcVABfMerW-1">
          <mxGeometry x="256.25" y="483.75" width="60" height="30" as="geometry" />
        </mxCell>
        <mxCell id="Fdt8p3Iun5FcVABfMerW-22" style="edgeStyle=orthogonalEdgeStyle;rounded=0;hachureGap=4;orthogonalLoop=1;jettySize=auto;html=1;exitX=0.5;exitY=1;exitDx=0;exitDy=0;entryX=0.5;entryY=0;entryDx=0;entryDy=0;fontFamily=Architects Daughter;fontSource=https%3A%2F%2Ffonts.googleapis.com%2Fcss%3Ffamily%3DArchitects%2BDaughter;fontSize=16;" edge="1" parent="Fdt8p3Iun5FcVABfMerW-1" source="Fdt8p3Iun5FcVABfMerW-23" target="Fdt8p3Iun5FcVABfMerW-18">
          <mxGeometry relative="1" as="geometry" />
        </mxCell>
        <mxCell id="Fdt8p3Iun5FcVABfMerW-23" value="establece" style="rhombus;whiteSpace=wrap;html=1;hachureGap=4;fontFamily=Architects Daughter;fontSource=https%3A%2F%2Ffonts.googleapis.com%2Fcss%3Ffamily%3DArchitects%2BDaughter;fontSize=20;rounded=0;" vertex="1" parent="Fdt8p3Iun5FcVABfMerW-1">
          <mxGeometry x="586.25" y="642.5" width="110" height="70" as="geometry" />
        </mxCell>
        <mxCell id="Fdt8p3Iun5FcVABfMerW-24" value="1:M" style="text;html=1;align=center;verticalAlign=middle;whiteSpace=wrap;rounded=0;fontSize=20;fontFamily=Helvetica;" vertex="1" parent="Fdt8p3Iun5FcVABfMerW-1">
          <mxGeometry x="576.25" y="628.75" width="60" height="30" as="geometry" />
        </mxCell>
        <mxCell id="Fdt8p3Iun5FcVABfMerW-25" value="dia_semana" style="ellipse;whiteSpace=wrap;html=1;hachureGap=4;fontFamily=Architects Daughter;fontSource=https%3A%2F%2Ffonts.googleapis.com%2Fcss%3Ffamily%3DArchitects%2BDaughter;fontSize=20;rounded=0;" vertex="1" parent="Fdt8p3Iun5FcVABfMerW-1">
          <mxGeometry x="433.75" y="763.75" width="125" height="30" as="geometry" />
        </mxCell>
        <mxCell id="Fdt8p3Iun5FcVABfMerW-26" value="hora_apertura" style="ellipse;whiteSpace=wrap;html=1;hachureGap=4;fontFamily=Architects Daughter;fontSource=https%3A%2F%2Ffonts.googleapis.com%2Fcss%3Ffamily%3DArchitects%2BDaughter;fontSize=20;rounded=0;" vertex="1" parent="Fdt8p3Iun5FcVABfMerW-1">
          <mxGeometry x="388.75" y="793.75" width="170" height="30" as="geometry" />
        </mxCell>
        <mxCell id="Fdt8p3Iun5FcVABfMerW-27" value="hora_cierre" style="ellipse;whiteSpace=wrap;html=1;hachureGap=4;fontFamily=Architects Daughter;fontSource=https%3A%2F%2Ffonts.googleapis.com%2Fcss%3Ffamily%3DArchitects%2BDaughter;fontSize=20;rounded=0;" vertex="1" parent="Fdt8p3Iun5FcVABfMerW-1">
          <mxGeometry x="418.75" y="823.75" width="140" height="30" as="geometry" />
        </mxCell>
        <mxCell id="Fdt8p3Iun5FcVABfMerW-28" value="tiempo_min" style="ellipse;whiteSpace=wrap;html=1;hachureGap=4;fontFamily=Architects Daughter;fontSource=https%3A%2F%2Ffonts.googleapis.com%2Fcss%3Ffamily%3DArchitects%2BDaughter;fontSize=20;rounded=0;" vertex="1" parent="Fdt8p3Iun5FcVABfMerW-1">
          <mxGeometry x="378.75" y="643.75" width="125" height="30" as="geometry" />
        </mxCell>
        <mxCell id="Fdt8p3Iun5FcVABfMerW-29" value="id_recurso" style="ellipse;whiteSpace=wrap;html=1;hachureGap=4;fontFamily=Architects Daughter;fontSource=https%3A%2F%2Ffonts.googleapis.com%2Fcss%3Ffamily%3DArchitects%2BDaughter;fontSize=20;fontStyle=5;rounded=0;" vertex="1" parent="Fdt8p3Iun5FcVABfMerW-1">
          <mxGeometry x="741.25" y="579.5" width="120" height="32.5" as="geometry" />
        </mxCell>
        <mxCell id="Fdt8p3Iun5FcVABfMerW-30" value="nombre" style="ellipse;whiteSpace=wrap;html=1;hachureGap=4;fontFamily=Architects Daughter;fontSource=https%3A%2F%2Ffonts.googleapis.com%2Fcss%3Ffamily%3DArchitects%2BDaughter;fontSize=20;rounded=0;" vertex="1" parent="Fdt8p3Iun5FcVABfMerW-1">
          <mxGeometry x="751.25" y="612" width="100" height="30" as="geometry" />
        </mxCell>
        <mxCell id="Fdt8p3Iun5FcVABfMerW-31" value="descripcion" style="ellipse;whiteSpace=wrap;html=1;hachureGap=4;fontFamily=Architects Daughter;fontSource=https%3A%2F%2Ffonts.googleapis.com%2Fcss%3Ffamily%3DArchitects%2BDaughter;fontSize=20;rounded=0;" vertex="1" parent="Fdt8p3Iun5FcVABfMerW-1">
          <mxGeometry x="736.25" y="642" width="130" height="27.5" as="geometry" />
        </mxCell>
        <mxCell id="Fdt8p3Iun5FcVABfMerW-32" value="capacidad" style="ellipse;whiteSpace=wrap;html=1;hachureGap=4;fontFamily=Architects Daughter;fontSource=https%3A%2F%2Ffonts.googleapis.com%2Fcss%3Ffamily%3DArchitects%2BDaughter;fontSize=20;rounded=0;" vertex="1" parent="Fdt8p3Iun5FcVABfMerW-1">
          <mxGeometry x="746.25" y="670.75" width="110" height="32.5" as="geometry" />
        </mxCell>
        <mxCell id="Fdt8p3Iun5FcVABfMerW-33" value="tipo_sillas" style="ellipse;whiteSpace=wrap;html=1;hachureGap=4;fontFamily=Architects Daughter;fontSource=https%3A%2F%2Ffonts.googleapis.com%2Fcss%3Ffamily%3DArchitects%2BDaughter;fontSize=20;rounded=0;" vertex="1" parent="Fdt8p3Iun5FcVABfMerW-1">
          <mxGeometry x="1111.25" y="495.75" width="110" height="26" as="geometry" />
        </mxCell>
        <mxCell id="Fdt8p3Iun5FcVABfMerW-34" value="tipo_mesas" style="ellipse;whiteSpace=wrap;html=1;hachureGap=4;fontFamily=Architects Daughter;fontSource=https%3A%2F%2Ffonts.googleapis.com%2Fcss%3Ffamily%3DArchitects%2BDaughter;fontSize=20;rounded=0;" vertex="1" parent="Fdt8p3Iun5FcVABfMerW-1">
          <mxGeometry x="1121.25" y="547.75" width="120" height="23.5" as="geometry" />
        </mxCell>
        <mxCell id="Fdt8p3Iun5FcVABfMerW-35" style="edgeStyle=orthogonalEdgeStyle;rounded=0;hachureGap=4;orthogonalLoop=1;jettySize=auto;html=1;exitX=1;exitY=0.5;exitDx=0;exitDy=0;fontFamily=Architects Daughter;fontSource=https%3A%2F%2Ffonts.googleapis.com%2Fcss%3Ffamily%3DArchitects%2BDaughter;fontSize=16;entryX=0;entryY=0.5;entryDx=0;entryDy=0;" edge="1" parent="Fdt8p3Iun5FcVABfMerW-1" source="Fdt8p3Iun5FcVABfMerW-37" target="Fdt8p3Iun5FcVABfMerW-42">
          <mxGeometry relative="1" as="geometry">
            <Array as="points" />
          </mxGeometry>
        </mxCell>
        <mxCell id="Fdt8p3Iun5FcVABfMerW-37" value="usuario" style="rounded=0;whiteSpace=wrap;html=1;hachureGap=4;fontFamily=Helvetica;fontSize=23;" vertex="1" parent="Fdt8p3Iun5FcVABfMerW-1">
          <mxGeometry x="381.25" y="65" width="100" height="40" as="geometry" />
        </mxCell>
        <mxCell id="Fdt8p3Iun5FcVABfMerW-38" value="id_unidad" style="ellipse;whiteSpace=wrap;html=1;hachureGap=4;fontFamily=Architects Daughter;fontSource=https%3A%2F%2Ffonts.googleapis.com%2Fcss%3Ffamily%3DArchitects%2BDaughter;fontSize=20;fontStyle=5;rounded=0;" vertex="1" parent="Fdt8p3Iun5FcVABfMerW-1">
          <mxGeometry x="381.25" y="578.75" width="120" height="32.5" as="geometry" />
        </mxCell>
        <mxCell id="Fdt8p3Iun5FcVABfMerW-39" value="nombre" style="ellipse;whiteSpace=wrap;html=1;hachureGap=4;fontFamily=Architects Daughter;fontSource=https%3A%2F%2Ffonts.googleapis.com%2Fcss%3Ffamily%3DArchitects%2BDaughter;fontSize=20;rounded=0;" vertex="1" parent="Fdt8p3Iun5FcVABfMerW-1">
          <mxGeometry x="391.25" y="612.5" width="100" height="30" as="geometry" />
        </mxCell>
        <mxCell id="Fdt8p3Iun5FcVABfMerW-40" value="calificacion" style="ellipse;whiteSpace=wrap;html=1;hachureGap=4;fontFamily=Architects Daughter;fontSource=https%3A%2F%2Ffonts.googleapis.com%2Fcss%3Ffamily%3DArchitects%2BDaughter;fontSize=20;rounded=0;" vertex="1" parent="Fdt8p3Iun5FcVABfMerW-1">
          <mxGeometry x="630" y="45" width="130" height="32.5" as="geometry" />
        </mxCell>
        <mxCell id="Fdt8p3Iun5FcVABfMerW-41" style="edgeStyle=orthogonalEdgeStyle;rounded=0;hachureGap=4;orthogonalLoop=1;jettySize=auto;html=1;exitX=1;exitY=0.5;exitDx=0;exitDy=0;entryX=0.5;entryY=0;entryDx=0;entryDy=0;fontFamily=Architects Daughter;fontSource=https%3A%2F%2Ffonts.googleapis.com%2Fcss%3Ffamily%3DArchitects%2BDaughter;fontSize=16;" edge="1" parent="Fdt8p3Iun5FcVABfMerW-1" source="Fdt8p3Iun5FcVABfMerW-42" target="Fdt8p3Iun5FcVABfMerW-63">
          <mxGeometry relative="1" as="geometry">
            <Array as="points">
              <mxPoint x="946.25" y="85" />
            </Array>
          </mxGeometry>
        </mxCell>
        <mxCell id="Fdt8p3Iun5FcVABfMerW-42" value="realiza" style="rhombus;whiteSpace=wrap;html=1;hachureGap=4;fontFamily=Architects Daughter;fontSource=https%3A%2F%2Ffonts.googleapis.com%2Fcss%3Ffamily%3DArchitects%2BDaughter;fontSize=20;rounded=0;" vertex="1" parent="Fdt8p3Iun5FcVABfMerW-1">
          <mxGeometry x="543.75" y="50" width="105" height="70" as="geometry" />
        </mxCell>
        <mxCell id="Fdt8p3Iun5FcVABfMerW-43" value="1:1" style="text;html=1;align=center;verticalAlign=middle;whiteSpace=wrap;rounded=0;fontSize=20;fontFamily=Helvetica;" vertex="1" parent="Fdt8p3Iun5FcVABfMerW-1">
          <mxGeometry x="963.75" y="230" width="35" height="20" as="geometry" />
        </mxCell>
        <mxCell id="Fdt8p3Iun5FcVABfMerW-44" value="id_persona" style="ellipse;whiteSpace=wrap;html=1;hachureGap=4;fontFamily=Architects Daughter;fontSource=https%3A%2F%2Ffonts.googleapis.com%2Fcss%3Ffamily%3DArchitects%2BDaughter;fontSize=20;fontStyle=5;rounded=0;" vertex="1" parent="Fdt8p3Iun5FcVABfMerW-1">
          <mxGeometry x="80" y="83.75" width="120" height="32.5" as="geometry" />
        </mxCell>
        <mxCell id="Fdt8p3Iun5FcVABfMerW-45" value="nombre_usuario" style="ellipse;whiteSpace=wrap;html=1;hachureGap=4;fontFamily=Architects Daughter;fontSource=https%3A%2F%2Ffonts.googleapis.com%2Fcss%3Ffamily%3DArchitects%2BDaughter;fontSize=20;rounded=0;" vertex="1" parent="Fdt8p3Iun5FcVABfMerW-1">
          <mxGeometry x="20" y="116.25" width="180" height="32.5" as="geometry" />
        </mxCell>
        <mxCell id="Fdt8p3Iun5FcVABfMerW-46" value="correo" style="ellipse;whiteSpace=wrap;html=1;hachureGap=4;fontFamily=Architects Daughter;fontSource=https%3A%2F%2Ffonts.googleapis.com%2Fcss%3Ffamily%3DArchitects%2BDaughter;fontSize=20;rounded=0;" vertex="1" parent="Fdt8p3Iun5FcVABfMerW-1">
          <mxGeometry x="80" y="148.75" width="120" height="32.5" as="geometry" />
        </mxCell>
        <mxCell id="-EgwV7YAkDDysSDa80SV-0" style="edgeStyle=orthogonalEdgeStyle;rounded=0;orthogonalLoop=1;jettySize=auto;html=1;exitX=1;exitY=0.5;exitDx=0;exitDy=0;entryX=0;entryY=0.5;entryDx=0;entryDy=0;" edge="1" parent="Fdt8p3Iun5FcVABfMerW-1" source="Fdt8p3Iun5FcVABfMerW-48" target="Fdt8p3Iun5FcVABfMerW-53">
          <mxGeometry relative="1" as="geometry" />
        </mxCell>
        <mxCell id="Fdt8p3Iun5FcVABfMerW-48" value="persona" style="rounded=0;whiteSpace=wrap;html=1;hachureGap=4;fontFamily=Helvetica;fontSize=20;" vertex="1" parent="Fdt8p3Iun5FcVABfMerW-1">
          <mxGeometry x="198.75" y="116.25" width="100" height="40" as="geometry" />
        </mxCell>
        <mxCell id="Fdt8p3Iun5FcVABfMerW-49" style="edgeStyle=orthogonalEdgeStyle;rounded=0;hachureGap=4;orthogonalLoop=1;jettySize=auto;html=1;exitX=0.5;exitY=1;exitDx=0;exitDy=0;entryX=0.5;entryY=0;entryDx=0;entryDy=0;fontFamily=Architects Daughter;fontSource=https%3A%2F%2Ffonts.googleapis.com%2Fcss%3Ffamily%3DArchitects%2BDaughter;fontSize=16;" edge="1" parent="Fdt8p3Iun5FcVABfMerW-1" source="Fdt8p3Iun5FcVABfMerW-50" target="Fdt8p3Iun5FcVABfMerW-57">
          <mxGeometry relative="1" as="geometry">
            <Array as="points">
              <mxPoint x="441.25" y="230" />
              <mxPoint x="351.25" y="230" />
            </Array>
          </mxGeometry>
        </mxCell>
        <mxCell id="Fdt8p3Iun5FcVABfMerW-50" value="empleado" style="rounded=0;whiteSpace=wrap;html=1;hachureGap=4;fontFamily=Helvetica;fontSize=23;" vertex="1" parent="Fdt8p3Iun5FcVABfMerW-1">
          <mxGeometry x="381.25" y="173.75" width="120" height="40" as="geometry" />
        </mxCell>
        <mxCell id="Fdt8p3Iun5FcVABfMerW-51" style="edgeStyle=orthogonalEdgeStyle;rounded=0;hachureGap=4;orthogonalLoop=1;jettySize=auto;html=1;exitX=1;exitY=0.5;exitDx=0;exitDy=0;entryX=0;entryY=0.5;entryDx=0;entryDy=0;fontFamily=Architects Daughter;fontSource=https%3A%2F%2Ffonts.googleapis.com%2Fcss%3Ffamily%3DArchitects%2BDaughter;fontSize=16;" edge="1" parent="Fdt8p3Iun5FcVABfMerW-1" source="Fdt8p3Iun5FcVABfMerW-53" target="Fdt8p3Iun5FcVABfMerW-50">
          <mxGeometry relative="1" as="geometry">
            <Array as="points">
              <mxPoint x="361.25" y="136" />
              <mxPoint x="361.25" y="194" />
            </Array>
          </mxGeometry>
        </mxCell>
        <mxCell id="Fdt8p3Iun5FcVABfMerW-52" style="edgeStyle=orthogonalEdgeStyle;rounded=0;hachureGap=4;orthogonalLoop=1;jettySize=auto;html=1;exitX=1;exitY=0.5;exitDx=0;exitDy=0;entryX=0;entryY=0.5;entryDx=0;entryDy=0;fontFamily=Architects Daughter;fontSource=https%3A%2F%2Ffonts.googleapis.com%2Fcss%3Ffamily%3DArchitects%2BDaughter;fontSize=16;" edge="1" parent="Fdt8p3Iun5FcVABfMerW-1" source="Fdt8p3Iun5FcVABfMerW-53" target="Fdt8p3Iun5FcVABfMerW-37">
          <mxGeometry relative="1" as="geometry">
            <Array as="points">
              <mxPoint x="361.25" y="136" />
              <mxPoint x="361.25" y="85" />
            </Array>
          </mxGeometry>
        </mxCell>
        <mxCell id="Fdt8p3Iun5FcVABfMerW-53" value="" style="triangle;whiteSpace=wrap;html=1;hachureGap=4;fontFamily=Architects Daughter;fontSource=https%3A%2F%2Ffonts.googleapis.com%2Fcss%3Ffamily%3DArchitects%2BDaughter;fontSize=20;rotation=0;rounded=0;" vertex="1" parent="Fdt8p3Iun5FcVABfMerW-1">
          <mxGeometry x="321.25" y="116.25" width="30" height="40" as="geometry" />
        </mxCell>
        <mxCell id="Fdt8p3Iun5FcVABfMerW-54" value="hora_entrega" style="ellipse;whiteSpace=wrap;html=1;hachureGap=4;fontFamily=Architects Daughter;fontSource=https%3A%2F%2Ffonts.googleapis.com%2Fcss%3Ffamily%3DArchitects%2BDaughter;fontSize=20;rounded=0;" vertex="1" parent="Fdt8p3Iun5FcVABfMerW-1">
          <mxGeometry x="470" y="333.75" width="160" height="30" as="geometry" />
        </mxCell>
        <mxCell id="Fdt8p3Iun5FcVABfMerW-55" value="hora_devolucion" style="ellipse;whiteSpace=wrap;html=1;hachureGap=4;fontFamily=Architects Daughter;fontSource=https%3A%2F%2Ffonts.googleapis.com%2Fcss%3Ffamily%3DArchitects%2BDaughter;fontSize=20;rounded=0;" vertex="1" parent="Fdt8p3Iun5FcVABfMerW-1">
          <mxGeometry x="460" y="363.75" width="182.5" height="30" as="geometry" />
        </mxCell>
        <mxCell id="Fdt8p3Iun5FcVABfMerW-56" style="edgeStyle=orthogonalEdgeStyle;rounded=0;hachureGap=4;orthogonalLoop=1;jettySize=auto;html=1;exitX=1;exitY=0.5;exitDx=0;exitDy=0;entryX=0;entryY=0.5;entryDx=0;entryDy=0;fontFamily=Architects Daughter;fontSource=https%3A%2F%2Ffonts.googleapis.com%2Fcss%3Ffamily%3DArchitects%2BDaughter;fontSize=16;" edge="1" parent="Fdt8p3Iun5FcVABfMerW-1" source="Fdt8p3Iun5FcVABfMerW-57" target="Fdt8p3Iun5FcVABfMerW-67">
          <mxGeometry relative="1" as="geometry" />
        </mxCell>
        <mxCell id="Fdt8p3Iun5FcVABfMerW-57" value="realiza" style="rhombus;whiteSpace=wrap;html=1;hachureGap=4;fontFamily=Architects Daughter;fontSource=https%3A%2F%2Ffonts.googleapis.com%2Fcss%3Ffamily%3DArchitects%2BDaughter;fontSize=20;rounded=0;" vertex="1" parent="Fdt8p3Iun5FcVABfMerW-1">
          <mxGeometry x="298.75" y="248.75" width="105" height="70" as="geometry" />
        </mxCell>
        <mxCell id="Fdt8p3Iun5FcVABfMerW-58" value="M:M" style="text;html=1;align=center;verticalAlign=middle;whiteSpace=wrap;rounded=0;fontSize=20;fontFamily=Helvetica;" vertex="1" parent="Fdt8p3Iun5FcVABfMerW-1">
          <mxGeometry x="570" y="20" width="60" height="30" as="geometry" />
        </mxCell>
        <mxCell id="Fdt8p3Iun5FcVABfMerW-61" value="M:M" style="text;html=1;align=center;verticalAlign=middle;whiteSpace=wrap;rounded=0;fontSize=20;fontFamily=Helvetica;" vertex="1" parent="Fdt8p3Iun5FcVABfMerW-1">
          <mxGeometry x="271.25" y="243.75" width="60" height="30" as="geometry" />
        </mxCell>
        <mxCell id="-EgwV7YAkDDysSDa80SV-1" style="edgeStyle=orthogonalEdgeStyle;rounded=0;orthogonalLoop=1;jettySize=auto;html=1;exitX=0.5;exitY=1;exitDx=0;exitDy=0;entryX=0.5;entryY=0;entryDx=0;entryDy=0;" edge="1" parent="Fdt8p3Iun5FcVABfMerW-1" source="Fdt8p3Iun5FcVABfMerW-63" target="Fdt8p3Iun5FcVABfMerW-69">
          <mxGeometry relative="1" as="geometry" />
        </mxCell>
        <mxCell id="Fdt8p3Iun5FcVABfMerW-63" value="reserva" style="rounded=0;whiteSpace=wrap;html=1;hachureGap=4;fontFamily=Helvetica;fontSize=23;" vertex="1" parent="Fdt8p3Iun5FcVABfMerW-1">
          <mxGeometry x="896.25" y="148.75" width="100" height="40" as="geometry" />
        </mxCell>
        <mxCell id="UYdT5KM9B5tP5GZX3k2u-2" style="edgeStyle=orthogonalEdgeStyle;rounded=0;orthogonalLoop=1;jettySize=auto;html=1;exitX=0.5;exitY=1;exitDx=0;exitDy=0;entryX=0.217;entryY=0.004;entryDx=0;entryDy=0;entryPerimeter=0;" edge="1" parent="Fdt8p3Iun5FcVABfMerW-1">
          <mxGeometry relative="1" as="geometry">
            <mxPoint x="747.52" y="320" as="sourcePoint" />
            <mxPoint x="746.25" y="538.9100000000001" as="targetPoint" />
            <Array as="points">
              <mxPoint x="747.25" y="429" />
              <mxPoint x="747.25" y="429" />
              <mxPoint x="747.25" y="539" />
            </Array>
          </mxGeometry>
        </mxCell>
        <mxCell id="Fdt8p3Iun5FcVABfMerW-65" value="contiene" style="rhombus;whiteSpace=wrap;html=1;hachureGap=4;fontFamily=Architects Daughter;fontSource=https%3A%2F%2Ffonts.googleapis.com%2Fcss%3Ffamily%3DArchitects%2BDaughter;fontSize=20;rounded=0;" vertex="1" parent="Fdt8p3Iun5FcVABfMerW-1">
          <mxGeometry x="696.25" y="248.75" width="105" height="70" as="geometry" />
        </mxCell>
        <mxCell id="Fdt8p3Iun5FcVABfMerW-66" style="edgeStyle=orthogonalEdgeStyle;rounded=0;hachureGap=4;orthogonalLoop=1;jettySize=auto;html=1;exitX=1;exitY=0.5;exitDx=0;exitDy=0;entryX=0;entryY=0.5;entryDx=0;entryDy=0;fontFamily=Architects Daughter;fontSource=https%3A%2F%2Ffonts.googleapis.com%2Fcss%3Ffamily%3DArchitects%2BDaughter;fontSize=16;" edge="1" parent="Fdt8p3Iun5FcVABfMerW-1" source="Fdt8p3Iun5FcVABfMerW-67" target="Fdt8p3Iun5FcVABfMerW-65">
          <mxGeometry relative="1" as="geometry" />
        </mxCell>
        <mxCell id="Fdt8p3Iun5FcVABfMerW-67" value="prestamo" style="rounded=0;whiteSpace=wrap;html=1;hachureGap=4;fontFamily=Helvetica;fontSize=23;" vertex="1" parent="Fdt8p3Iun5FcVABfMerW-1">
          <mxGeometry x="500" y="263.75" width="100" height="40" as="geometry" />
        </mxCell>
        <mxCell id="Fdt8p3Iun5FcVABfMerW-68" style="edgeStyle=orthogonalEdgeStyle;rounded=0;hachureGap=4;orthogonalLoop=1;jettySize=auto;html=1;entryX=0.75;entryY=0;entryDx=0;entryDy=0;fontFamily=Architects Daughter;fontSource=https%3A%2F%2Ffonts.googleapis.com%2Fcss%3Ffamily%3DArchitects%2BDaughter;fontSize=16;exitX=0.5;exitY=1;exitDx=0;exitDy=0;" edge="1" parent="Fdt8p3Iun5FcVABfMerW-1" source="Fdt8p3Iun5FcVABfMerW-69" target="Fdt8p3Iun5FcVABfMerW-7">
          <mxGeometry relative="1" as="geometry">
            <Array as="points">
              <mxPoint x="849.25" y="305" />
              <mxPoint x="849.25" y="335" />
            </Array>
            <mxPoint x="941.25" y="375" as="sourcePoint" />
          </mxGeometry>
        </mxCell>
        <mxCell id="Fdt8p3Iun5FcVABfMerW-69" value="contiene" style="rhombus;whiteSpace=wrap;html=1;hachureGap=4;fontFamily=Architects Daughter;fontSource=https%3A%2F%2Ffonts.googleapis.com%2Fcss%3Ffamily%3DArchitects%2BDaughter;fontSize=20;rounded=0;" vertex="1" parent="Fdt8p3Iun5FcVABfMerW-1">
          <mxGeometry x="893.75" y="235" width="105" height="70" as="geometry" />
        </mxCell>
        <mxCell id="Fdt8p3Iun5FcVABfMerW-71" value="1:1" style="text;html=1;align=center;verticalAlign=middle;whiteSpace=wrap;rounded=0;fontSize=20;fontFamily=Helvetica;" vertex="1" parent="Fdt8p3Iun5FcVABfMerW-1">
          <mxGeometry x="731.25" y="228.75" width="35" height="20" as="geometry" />
        </mxCell>
        <mxCell id="Fdt8p3Iun5FcVABfMerW-72" value="fallo" style="ellipse;whiteSpace=wrap;html=1;hachureGap=4;fontFamily=Architects Daughter;fontSource=https%3A%2F%2Ffonts.googleapis.com%2Fcss%3Ffamily%3DArchitects%2BDaughter;fontSize=20;rounded=0;" vertex="1" parent="Fdt8p3Iun5FcVABfMerW-1">
          <mxGeometry x="516.25" y="393.75" width="70" height="30" as="geometry" />
        </mxCell>
        <mxCell id="8RwoYqvz8tEQkqdIUvzm-0" value="id_horario" style="ellipse;whiteSpace=wrap;html=1;hachureGap=4;fontFamily=Architects Daughter;fontSource=https%3A%2F%2Ffonts.googleapis.com%2Fcss%3Ffamily%3DArchitects%2BDaughter;fontSize=20;fontStyle=5;rounded=0;" vertex="1" parent="Fdt8p3Iun5FcVABfMerW-1">
          <mxGeometry x="436.25" y="733.75" width="125" height="30" as="geometry" />
        </mxCell>
        <mxCell id="8RwoYqvz8tEQkqdIUvzm-1" value="id_prestamo" style="ellipse;whiteSpace=wrap;html=1;hachureGap=4;fontFamily=Architects Daughter;fontSource=https%3A%2F%2Ffonts.googleapis.com%2Fcss%3Ffamily%3DArchitects%2BDaughter;fontSize=20;fontStyle=5;rounded=0;" vertex="1" parent="Fdt8p3Iun5FcVABfMerW-1">
          <mxGeometry x="470" y="303.75" width="160" height="30" as="geometry" />
        </mxCell>
        <mxCell id="_LIqgTDhozhLzIGRH-Xo-0" value="horario_unidad" style="rounded=0;whiteSpace=wrap;html=1;hachureGap=4;fontFamily=Helvetica;fontSize=20;" vertex="1" parent="Fdt8p3Iun5FcVABfMerW-1">
          <mxGeometry x="41.25" y="528.75" width="150" height="40" as="geometry" />
        </mxCell>
        <mxCell id="_LIqgTDhozhLzIGRH-Xo-1" value="dia_semana" style="ellipse;whiteSpace=wrap;html=1;hachureGap=4;fontFamily=Architects Daughter;fontSource=https%3A%2F%2Ffonts.googleapis.com%2Fcss%3Ffamily%3DArchitects%2BDaughter;fontSize=20;rounded=0;" vertex="1" parent="Fdt8p3Iun5FcVABfMerW-1">
          <mxGeometry x="53.75" y="598.75" width="125" height="30" as="geometry" />
        </mxCell>
        <mxCell id="_LIqgTDhozhLzIGRH-Xo-2" value="hora_apertura" style="ellipse;whiteSpace=wrap;html=1;hachureGap=4;fontFamily=Architects Daughter;fontSource=https%3A%2F%2Ffonts.googleapis.com%2Fcss%3Ffamily%3DArchitects%2BDaughter;fontSize=20;rounded=0;" vertex="1" parent="Fdt8p3Iun5FcVABfMerW-1">
          <mxGeometry x="32.5" y="628.75" width="167.5" height="30" as="geometry" />
        </mxCell>
        <mxCell id="_LIqgTDhozhLzIGRH-Xo-3" value="hora_cierre" style="ellipse;whiteSpace=wrap;html=1;hachureGap=4;fontFamily=Architects Daughter;fontSource=https%3A%2F%2Ffonts.googleapis.com%2Fcss%3Ffamily%3DArchitects%2BDaughter;fontSize=20;rounded=0;" vertex="1" parent="Fdt8p3Iun5FcVABfMerW-1">
          <mxGeometry x="47.5" y="661.25" width="137.5" height="30" as="geometry" />
        </mxCell>
        <mxCell id="_LIqgTDhozhLzIGRH-Xo-4" value="id_horario" style="ellipse;whiteSpace=wrap;html=1;hachureGap=4;fontFamily=Architects Daughter;fontSource=https%3A%2F%2Ffonts.googleapis.com%2Fcss%3Ffamily%3DArchitects%2BDaughter;fontSize=20;fontStyle=5;rounded=0;" vertex="1" parent="Fdt8p3Iun5FcVABfMerW-1">
          <mxGeometry x="53.75" y="568.75" width="125" height="30" as="geometry" />
        </mxCell>
        <mxCell id="YGCBTB9n9oO-Hdle2_bf-0" value="contrasenia" style="ellipse;whiteSpace=wrap;html=1;hachureGap=4;fontFamily=Architects Daughter;fontSource=https%3A%2F%2Ffonts.googleapis.com%2Fcss%3Ffamily%3DArchitects%2BDaughter;fontSize=20;rounded=0;" vertex="1" parent="Fdt8p3Iun5FcVABfMerW-1">
          <mxGeometry x="80" y="181.25" width="120" height="32.5" as="geometry" />
        </mxCell>
        <mxCell id="pzWo43OeM_ZXqWdcRrp1-2" value="hora_inicio" style="ellipse;whiteSpace=wrap;html=1;hachureGap=4;fontFamily=Architects Daughter;fontSource=https%3A%2F%2Ffonts.googleapis.com%2Fcss%3Ffamily%3DArchitects%2BDaughter;fontSize=20;rounded=0;" vertex="1" parent="Fdt8p3Iun5FcVABfMerW-1">
          <mxGeometry x="996.25" y="120" width="110" height="26" as="geometry" />
        </mxCell>
        <mxCell id="pzWo43OeM_ZXqWdcRrp1-3" value="hora_final" style="ellipse;whiteSpace=wrap;html=1;hachureGap=4;fontFamily=Architects Daughter;fontSource=https%3A%2F%2Ffonts.googleapis.com%2Fcss%3Ffamily%3DArchitects%2BDaughter;fontSize=20;rounded=0;" vertex="1" parent="Fdt8p3Iun5FcVABfMerW-1">
          <mxGeometry x="996.25" y="145.5" width="110" height="26" as="geometry" />
        </mxCell>
        <mxCell id="pzWo43OeM_ZXqWdcRrp1-4" value="fecha_inicio" style="ellipse;whiteSpace=wrap;html=1;hachureGap=4;fontFamily=Architects Daughter;fontSource=https%3A%2F%2Ffonts.googleapis.com%2Fcss%3Ffamily%3DArchitects%2BDaughter;fontSize=20;rounded=0;" vertex="1" parent="Fdt8p3Iun5FcVABfMerW-1">
          <mxGeometry x="996.25" y="171.5" width="140" height="26" as="geometry" />
        </mxCell>
        <mxCell id="pzWo43OeM_ZXqWdcRrp1-5" value="fecha_final" style="ellipse;whiteSpace=wrap;html=1;hachureGap=4;fontFamily=Architects Daughter;fontSource=https%3A%2F%2Ffonts.googleapis.com%2Fcss%3Ffamily%3DArchitects%2BDaughter;fontSize=20;rounded=0;" vertex="1" parent="Fdt8p3Iun5FcVABfMerW-1">
          <mxGeometry x="996.25" y="197.5" width="140" height="26" as="geometry" />
        </mxCell>
      </root>
    </mxGraphModel>
  </diagram>
  <diagram name="Relacional" id="WdHG-aHe9T9yy0EaP1gD">
    <mxGraphModel dx="1985" dy="887" grid="1" gridSize="10" guides="1" tooltips="1" connect="1" arrows="1" fold="1" page="1" pageScale="1" pageWidth="1000" pageHeight="900" math="0" shadow="0">
      <root>
        <mxCell id="5fCRp2MowrQQEJdSjkWT-0" />
        <mxCell id="5fCRp2MowrQQEJdSjkWT-1" parent="5fCRp2MowrQQEJdSjkWT-0" />
        <mxCell id="4H0bfWlm6Tqa2H4D3_Ia-0" value="horarios_unidades" style="shape=table;startSize=30;container=1;collapsible=1;childLayout=tableLayout;fixedRows=1;rowLines=0;fontStyle=1;align=center;resizeLast=1;html=1;hachureGap=4;fontFamily=Architects Daughter;fontSource=https%3A%2F%2Ffonts.googleapis.com%2Fcss%3Ffamily%3DArchitects%2BDaughter;fontSize=20;rounded=0;" vertex="1" parent="5fCRp2MowrQQEJdSjkWT-1">
          <mxGeometry x="10" y="460" width="190" height="180" as="geometry" />
        </mxCell>
        <mxCell id="4H0bfWlm6Tqa2H4D3_Ia-1" value="" style="shape=tableRow;horizontal=0;startSize=0;swimlaneHead=0;swimlaneBody=0;fillColor=none;collapsible=0;dropTarget=0;points=[[0,0.5],[1,0.5]];portConstraint=eastwest;top=0;left=0;right=0;bottom=1;hachureGap=4;fontFamily=Architects Daughter;fontSource=https%3A%2F%2Ffonts.googleapis.com%2Fcss%3Ffamily%3DArchitects%2BDaughter;fontSize=20;rounded=0;" vertex="1" parent="4H0bfWlm6Tqa2H4D3_Ia-0">
          <mxGeometry y="30" width="190" height="30" as="geometry" />
        </mxCell>
        <mxCell id="4H0bfWlm6Tqa2H4D3_Ia-2" value="PK" style="shape=partialRectangle;connectable=0;fillColor=none;top=0;left=0;bottom=0;right=0;fontStyle=1;overflow=hidden;whiteSpace=wrap;html=1;hachureGap=4;fontFamily=Architects Daughter;fontSource=https%3A%2F%2Ffonts.googleapis.com%2Fcss%3Ffamily%3DArchitects%2BDaughter;fontSize=20;rounded=0;" vertex="1" parent="4H0bfWlm6Tqa2H4D3_Ia-1">
          <mxGeometry width="40" height="30" as="geometry">
            <mxRectangle width="40" height="30" as="alternateBounds" />
          </mxGeometry>
        </mxCell>
        <mxCell id="4H0bfWlm6Tqa2H4D3_Ia-3" value="id_horario" style="shape=partialRectangle;connectable=0;fillColor=none;top=0;left=0;bottom=0;right=0;align=left;spacingLeft=6;fontStyle=5;overflow=hidden;whiteSpace=wrap;html=1;hachureGap=4;fontFamily=Architects Daughter;fontSource=https%3A%2F%2Ffonts.googleapis.com%2Fcss%3Ffamily%3DArchitects%2BDaughter;fontSize=20;rounded=0;" vertex="1" parent="4H0bfWlm6Tqa2H4D3_Ia-1">
          <mxGeometry x="40" width="150" height="30" as="geometry">
            <mxRectangle width="150" height="30" as="alternateBounds" />
          </mxGeometry>
        </mxCell>
        <mxCell id="4H0bfWlm6Tqa2H4D3_Ia-4" value="" style="shape=tableRow;horizontal=0;startSize=0;swimlaneHead=0;swimlaneBody=0;fillColor=none;collapsible=0;dropTarget=0;points=[[0,0.5],[1,0.5]];portConstraint=eastwest;top=0;left=0;right=0;bottom=0;hachureGap=4;fontFamily=Architects Daughter;fontSource=https%3A%2F%2Ffonts.googleapis.com%2Fcss%3Ffamily%3DArchitects%2BDaughter;fontSize=20;rounded=0;" vertex="1" parent="4H0bfWlm6Tqa2H4D3_Ia-0">
          <mxGeometry y="60" width="190" height="30" as="geometry" />
        </mxCell>
        <mxCell id="4H0bfWlm6Tqa2H4D3_Ia-5" value="" style="shape=partialRectangle;connectable=0;fillColor=none;top=0;left=0;bottom=0;right=0;editable=1;overflow=hidden;whiteSpace=wrap;html=1;hachureGap=4;fontFamily=Architects Daughter;fontSource=https%3A%2F%2Ffonts.googleapis.com%2Fcss%3Ffamily%3DArchitects%2BDaughter;fontSize=20;rounded=0;" vertex="1" parent="4H0bfWlm6Tqa2H4D3_Ia-4">
          <mxGeometry width="40" height="30" as="geometry">
            <mxRectangle width="40" height="30" as="alternateBounds" />
          </mxGeometry>
        </mxCell>
        <mxCell id="4H0bfWlm6Tqa2H4D3_Ia-6" value="dia_semana" style="shape=partialRectangle;connectable=0;fillColor=none;top=0;left=0;bottom=0;right=0;align=left;spacingLeft=6;overflow=hidden;whiteSpace=wrap;html=1;hachureGap=4;fontFamily=Architects Daughter;fontSource=https%3A%2F%2Ffonts.googleapis.com%2Fcss%3Ffamily%3DArchitects%2BDaughter;fontSize=20;rounded=0;" vertex="1" parent="4H0bfWlm6Tqa2H4D3_Ia-4">
          <mxGeometry x="40" width="150" height="30" as="geometry">
            <mxRectangle width="150" height="30" as="alternateBounds" />
          </mxGeometry>
        </mxCell>
        <mxCell id="4H0bfWlm6Tqa2H4D3_Ia-7" value="" style="shape=tableRow;horizontal=0;startSize=0;swimlaneHead=0;swimlaneBody=0;fillColor=none;collapsible=0;dropTarget=0;points=[[0,0.5],[1,0.5]];portConstraint=eastwest;top=0;left=0;right=0;bottom=0;hachureGap=4;fontFamily=Architects Daughter;fontSource=https%3A%2F%2Ffonts.googleapis.com%2Fcss%3Ffamily%3DArchitects%2BDaughter;fontSize=20;rounded=0;" vertex="1" parent="4H0bfWlm6Tqa2H4D3_Ia-0">
          <mxGeometry y="90" width="190" height="30" as="geometry" />
        </mxCell>
        <mxCell id="4H0bfWlm6Tqa2H4D3_Ia-8" value="" style="shape=partialRectangle;connectable=0;fillColor=none;top=0;left=0;bottom=0;right=0;editable=1;overflow=hidden;whiteSpace=wrap;html=1;hachureGap=4;fontFamily=Architects Daughter;fontSource=https%3A%2F%2Ffonts.googleapis.com%2Fcss%3Ffamily%3DArchitects%2BDaughter;fontSize=20;rounded=0;" vertex="1" parent="4H0bfWlm6Tqa2H4D3_Ia-7">
          <mxGeometry width="40" height="30" as="geometry">
            <mxRectangle width="40" height="30" as="alternateBounds" />
          </mxGeometry>
        </mxCell>
        <mxCell id="4H0bfWlm6Tqa2H4D3_Ia-9" value="hora_apertura" style="shape=partialRectangle;connectable=0;fillColor=none;top=0;left=0;bottom=0;right=0;align=left;spacingLeft=6;overflow=hidden;whiteSpace=wrap;html=1;hachureGap=4;fontFamily=Architects Daughter;fontSource=https%3A%2F%2Ffonts.googleapis.com%2Fcss%3Ffamily%3DArchitects%2BDaughter;fontSize=20;rounded=0;" vertex="1" parent="4H0bfWlm6Tqa2H4D3_Ia-7">
          <mxGeometry x="40" width="150" height="30" as="geometry">
            <mxRectangle width="150" height="30" as="alternateBounds" />
          </mxGeometry>
        </mxCell>
        <mxCell id="4H0bfWlm6Tqa2H4D3_Ia-10" value="" style="shape=tableRow;horizontal=0;startSize=0;swimlaneHead=0;swimlaneBody=0;fillColor=none;collapsible=0;dropTarget=0;points=[[0,0.5],[1,0.5]];portConstraint=eastwest;top=0;left=0;right=0;bottom=0;hachureGap=4;fontFamily=Architects Daughter;fontSource=https%3A%2F%2Ffonts.googleapis.com%2Fcss%3Ffamily%3DArchitects%2BDaughter;fontSize=20;rounded=0;" vertex="1" parent="4H0bfWlm6Tqa2H4D3_Ia-0">
          <mxGeometry y="120" width="190" height="30" as="geometry" />
        </mxCell>
        <mxCell id="4H0bfWlm6Tqa2H4D3_Ia-11" value="" style="shape=partialRectangle;connectable=0;fillColor=none;top=0;left=0;bottom=0;right=0;editable=1;overflow=hidden;whiteSpace=wrap;html=1;hachureGap=4;fontFamily=Architects Daughter;fontSource=https%3A%2F%2Ffonts.googleapis.com%2Fcss%3Ffamily%3DArchitects%2BDaughter;fontSize=20;rounded=0;" vertex="1" parent="4H0bfWlm6Tqa2H4D3_Ia-10">
          <mxGeometry width="40" height="30" as="geometry">
            <mxRectangle width="40" height="30" as="alternateBounds" />
          </mxGeometry>
        </mxCell>
        <mxCell id="4H0bfWlm6Tqa2H4D3_Ia-12" value="hora_cierre" style="shape=partialRectangle;connectable=0;fillColor=none;top=0;left=0;bottom=0;right=0;align=left;spacingLeft=6;overflow=hidden;whiteSpace=wrap;html=1;hachureGap=4;fontFamily=Architects Daughter;fontSource=https%3A%2F%2Ffonts.googleapis.com%2Fcss%3Ffamily%3DArchitects%2BDaughter;fontSize=20;rounded=0;" vertex="1" parent="4H0bfWlm6Tqa2H4D3_Ia-10">
          <mxGeometry x="40" width="150" height="30" as="geometry">
            <mxRectangle width="150" height="30" as="alternateBounds" />
          </mxGeometry>
        </mxCell>
        <mxCell id="4H0bfWlm6Tqa2H4D3_Ia-85" value="" style="shape=tableRow;horizontal=0;startSize=0;swimlaneHead=0;swimlaneBody=0;fillColor=none;collapsible=0;dropTarget=0;points=[[0,0.5],[1,0.5]];portConstraint=eastwest;top=0;left=0;right=0;bottom=0;hachureGap=4;fontFamily=Architects Daughter;fontSource=https%3A%2F%2Ffonts.googleapis.com%2Fcss%3Ffamily%3DArchitects%2BDaughter;fontSize=20;rounded=0;" vertex="1" parent="4H0bfWlm6Tqa2H4D3_Ia-0">
          <mxGeometry y="150" width="190" height="30" as="geometry" />
        </mxCell>
        <mxCell id="4H0bfWlm6Tqa2H4D3_Ia-86" value="FK" style="shape=partialRectangle;connectable=0;fillColor=none;top=0;left=0;bottom=0;right=0;editable=1;overflow=hidden;whiteSpace=wrap;html=1;hachureGap=4;fontFamily=Architects Daughter;fontSource=https%3A%2F%2Ffonts.googleapis.com%2Fcss%3Ffamily%3DArchitects%2BDaughter;fontSize=20;rounded=0;" vertex="1" parent="4H0bfWlm6Tqa2H4D3_Ia-85">
          <mxGeometry width="40" height="30" as="geometry">
            <mxRectangle width="40" height="30" as="alternateBounds" />
          </mxGeometry>
        </mxCell>
        <mxCell id="4H0bfWlm6Tqa2H4D3_Ia-87" value="id_unidad" style="shape=partialRectangle;connectable=0;fillColor=none;top=0;left=0;bottom=0;right=0;align=left;spacingLeft=6;overflow=hidden;whiteSpace=wrap;html=1;hachureGap=4;fontFamily=Architects Daughter;fontSource=https%3A%2F%2Ffonts.googleapis.com%2Fcss%3Ffamily%3DArchitects%2BDaughter;fontSize=20;rounded=0;" vertex="1" parent="4H0bfWlm6Tqa2H4D3_Ia-85">
          <mxGeometry x="40" width="150" height="30" as="geometry">
            <mxRectangle width="150" height="30" as="alternateBounds" />
          </mxGeometry>
        </mxCell>
        <mxCell id="4H0bfWlm6Tqa2H4D3_Ia-13" value="recursos" style="shape=table;startSize=30;container=1;collapsible=1;childLayout=tableLayout;fixedRows=1;rowLines=0;fontStyle=1;align=center;resizeLast=1;html=1;hachureGap=4;fontFamily=Architects Daughter;fontSource=https%3A%2F%2Ffonts.googleapis.com%2Fcss%3Ffamily%3DArchitects%2BDaughter;fontSize=20;rounded=0;" vertex="1" parent="5fCRp2MowrQQEJdSjkWT-1">
          <mxGeometry x="740" y="460" width="180" height="150" as="geometry" />
        </mxCell>
        <mxCell id="4H0bfWlm6Tqa2H4D3_Ia-14" value="" style="shape=tableRow;horizontal=0;startSize=0;swimlaneHead=0;swimlaneBody=0;fillColor=none;collapsible=0;dropTarget=0;points=[[0,0.5],[1,0.5]];portConstraint=eastwest;top=0;left=0;right=0;bottom=1;hachureGap=4;fontFamily=Architects Daughter;fontSource=https%3A%2F%2Ffonts.googleapis.com%2Fcss%3Ffamily%3DArchitects%2BDaughter;fontSize=20;rounded=0;" vertex="1" parent="4H0bfWlm6Tqa2H4D3_Ia-13">
          <mxGeometry y="30" width="180" height="30" as="geometry" />
        </mxCell>
        <mxCell id="4H0bfWlm6Tqa2H4D3_Ia-15" value="PK" style="shape=partialRectangle;connectable=0;fillColor=none;top=0;left=0;bottom=0;right=0;fontStyle=1;overflow=hidden;whiteSpace=wrap;html=1;hachureGap=4;fontFamily=Architects Daughter;fontSource=https%3A%2F%2Ffonts.googleapis.com%2Fcss%3Ffamily%3DArchitects%2BDaughter;fontSize=20;rounded=0;" vertex="1" parent="4H0bfWlm6Tqa2H4D3_Ia-14">
          <mxGeometry width="40" height="30" as="geometry">
            <mxRectangle width="40" height="30" as="alternateBounds" />
          </mxGeometry>
        </mxCell>
        <mxCell id="4H0bfWlm6Tqa2H4D3_Ia-16" value="id_recurso" style="shape=partialRectangle;connectable=0;fillColor=none;top=0;left=0;bottom=0;right=0;align=left;spacingLeft=6;fontStyle=5;overflow=hidden;whiteSpace=wrap;html=1;hachureGap=4;fontFamily=Architects Daughter;fontSource=https%3A%2F%2Ffonts.googleapis.com%2Fcss%3Ffamily%3DArchitects%2BDaughter;fontSize=20;rounded=0;" vertex="1" parent="4H0bfWlm6Tqa2H4D3_Ia-14">
          <mxGeometry x="40" width="140" height="30" as="geometry">
            <mxRectangle width="140" height="30" as="alternateBounds" />
          </mxGeometry>
        </mxCell>
        <mxCell id="4H0bfWlm6Tqa2H4D3_Ia-17" value="" style="shape=tableRow;horizontal=0;startSize=0;swimlaneHead=0;swimlaneBody=0;fillColor=none;collapsible=0;dropTarget=0;points=[[0,0.5],[1,0.5]];portConstraint=eastwest;top=0;left=0;right=0;bottom=0;hachureGap=4;fontFamily=Architects Daughter;fontSource=https%3A%2F%2Ffonts.googleapis.com%2Fcss%3Ffamily%3DArchitects%2BDaughter;fontSize=20;rounded=0;" vertex="1" parent="4H0bfWlm6Tqa2H4D3_Ia-13">
          <mxGeometry y="60" width="180" height="30" as="geometry" />
        </mxCell>
        <mxCell id="4H0bfWlm6Tqa2H4D3_Ia-18" value="" style="shape=partialRectangle;connectable=0;fillColor=none;top=0;left=0;bottom=0;right=0;editable=1;overflow=hidden;whiteSpace=wrap;html=1;hachureGap=4;fontFamily=Architects Daughter;fontSource=https%3A%2F%2Ffonts.googleapis.com%2Fcss%3Ffamily%3DArchitects%2BDaughter;fontSize=20;rounded=0;" vertex="1" parent="4H0bfWlm6Tqa2H4D3_Ia-17">
          <mxGeometry width="40" height="30" as="geometry">
            <mxRectangle width="40" height="30" as="alternateBounds" />
          </mxGeometry>
        </mxCell>
        <mxCell id="4H0bfWlm6Tqa2H4D3_Ia-19" value="nombre" style="shape=partialRectangle;connectable=0;fillColor=none;top=0;left=0;bottom=0;right=0;align=left;spacingLeft=6;overflow=hidden;whiteSpace=wrap;html=1;hachureGap=4;fontFamily=Architects Daughter;fontSource=https%3A%2F%2Ffonts.googleapis.com%2Fcss%3Ffamily%3DArchitects%2BDaughter;fontSize=20;rounded=0;" vertex="1" parent="4H0bfWlm6Tqa2H4D3_Ia-17">
          <mxGeometry x="40" width="140" height="30" as="geometry">
            <mxRectangle width="140" height="30" as="alternateBounds" />
          </mxGeometry>
        </mxCell>
        <mxCell id="4H0bfWlm6Tqa2H4D3_Ia-20" value="" style="shape=tableRow;horizontal=0;startSize=0;swimlaneHead=0;swimlaneBody=0;fillColor=none;collapsible=0;dropTarget=0;points=[[0,0.5],[1,0.5]];portConstraint=eastwest;top=0;left=0;right=0;bottom=0;hachureGap=4;fontFamily=Architects Daughter;fontSource=https%3A%2F%2Ffonts.googleapis.com%2Fcss%3Ffamily%3DArchitects%2BDaughter;fontSize=20;rounded=0;" vertex="1" parent="4H0bfWlm6Tqa2H4D3_Ia-13">
          <mxGeometry y="90" width="180" height="30" as="geometry" />
        </mxCell>
        <mxCell id="4H0bfWlm6Tqa2H4D3_Ia-21" value="" style="shape=partialRectangle;connectable=0;fillColor=none;top=0;left=0;bottom=0;right=0;editable=1;overflow=hidden;whiteSpace=wrap;html=1;hachureGap=4;fontFamily=Architects Daughter;fontSource=https%3A%2F%2Ffonts.googleapis.com%2Fcss%3Ffamily%3DArchitects%2BDaughter;fontSize=20;rounded=0;" vertex="1" parent="4H0bfWlm6Tqa2H4D3_Ia-20">
          <mxGeometry width="40" height="30" as="geometry">
            <mxRectangle width="40" height="30" as="alternateBounds" />
          </mxGeometry>
        </mxCell>
        <mxCell id="4H0bfWlm6Tqa2H4D3_Ia-22" value="descripcion" style="shape=partialRectangle;connectable=0;fillColor=none;top=0;left=0;bottom=0;right=0;align=left;spacingLeft=6;overflow=hidden;whiteSpace=wrap;html=1;hachureGap=4;fontFamily=Architects Daughter;fontSource=https%3A%2F%2Ffonts.googleapis.com%2Fcss%3Ffamily%3DArchitects%2BDaughter;fontSize=20;rounded=0;" vertex="1" parent="4H0bfWlm6Tqa2H4D3_Ia-20">
          <mxGeometry x="40" width="140" height="30" as="geometry">
            <mxRectangle width="140" height="30" as="alternateBounds" />
          </mxGeometry>
        </mxCell>
        <mxCell id="4H0bfWlm6Tqa2H4D3_Ia-23" value="" style="shape=tableRow;horizontal=0;startSize=0;swimlaneHead=0;swimlaneBody=0;fillColor=none;collapsible=0;dropTarget=0;points=[[0,0.5],[1,0.5]];portConstraint=eastwest;top=0;left=0;right=0;bottom=0;hachureGap=4;fontFamily=Architects Daughter;fontSource=https%3A%2F%2Ffonts.googleapis.com%2Fcss%3Ffamily%3DArchitects%2BDaughter;fontSize=20;rounded=0;" vertex="1" parent="4H0bfWlm6Tqa2H4D3_Ia-13">
          <mxGeometry y="120" width="180" height="30" as="geometry" />
        </mxCell>
        <mxCell id="4H0bfWlm6Tqa2H4D3_Ia-24" value="" style="shape=partialRectangle;connectable=0;fillColor=none;top=0;left=0;bottom=0;right=0;editable=1;overflow=hidden;whiteSpace=wrap;html=1;hachureGap=4;fontFamily=Architects Daughter;fontSource=https%3A%2F%2Ffonts.googleapis.com%2Fcss%3Ffamily%3DArchitects%2BDaughter;fontSize=20;rounded=0;" vertex="1" parent="4H0bfWlm6Tqa2H4D3_Ia-23">
          <mxGeometry width="40" height="30" as="geometry">
            <mxRectangle width="40" height="30" as="alternateBounds" />
          </mxGeometry>
        </mxCell>
        <mxCell id="4H0bfWlm6Tqa2H4D3_Ia-25" value="capacidad" style="shape=partialRectangle;connectable=0;fillColor=none;top=0;left=0;bottom=0;right=0;align=left;spacingLeft=6;overflow=hidden;whiteSpace=wrap;html=1;hachureGap=4;fontFamily=Architects Daughter;fontSource=https%3A%2F%2Ffonts.googleapis.com%2Fcss%3Ffamily%3DArchitects%2BDaughter;fontSize=20;rounded=0;" vertex="1" parent="4H0bfWlm6Tqa2H4D3_Ia-23">
          <mxGeometry x="40" width="140" height="30" as="geometry">
            <mxRectangle width="140" height="30" as="alternateBounds" />
          </mxGeometry>
        </mxCell>
        <mxCell id="4H0bfWlm6Tqa2H4D3_Ia-26" value="unidades" style="shape=table;startSize=30;container=1;collapsible=1;childLayout=tableLayout;fixedRows=1;rowLines=0;fontStyle=1;align=center;resizeLast=1;html=1;hachureGap=4;fontFamily=Architects Daughter;fontSource=https%3A%2F%2Ffonts.googleapis.com%2Fcss%3Ffamily%3DArchitects%2BDaughter;fontSize=20;rounded=0;" vertex="1" parent="5fCRp2MowrQQEJdSjkWT-1">
          <mxGeometry x="240" y="460" width="180" height="120" as="geometry" />
        </mxCell>
        <mxCell id="4H0bfWlm6Tqa2H4D3_Ia-27" value="" style="shape=tableRow;horizontal=0;startSize=0;swimlaneHead=0;swimlaneBody=0;fillColor=none;collapsible=0;dropTarget=0;points=[[0,0.5],[1,0.5]];portConstraint=eastwest;top=0;left=0;right=0;bottom=1;hachureGap=4;fontFamily=Architects Daughter;fontSource=https%3A%2F%2Ffonts.googleapis.com%2Fcss%3Ffamily%3DArchitects%2BDaughter;fontSize=20;rounded=0;" vertex="1" parent="4H0bfWlm6Tqa2H4D3_Ia-26">
          <mxGeometry y="30" width="180" height="30" as="geometry" />
        </mxCell>
        <mxCell id="4H0bfWlm6Tqa2H4D3_Ia-28" value="PK" style="shape=partialRectangle;connectable=0;fillColor=none;top=0;left=0;bottom=0;right=0;fontStyle=1;overflow=hidden;whiteSpace=wrap;html=1;hachureGap=4;fontFamily=Architects Daughter;fontSource=https%3A%2F%2Ffonts.googleapis.com%2Fcss%3Ffamily%3DArchitects%2BDaughter;fontSize=20;rounded=0;" vertex="1" parent="4H0bfWlm6Tqa2H4D3_Ia-27">
          <mxGeometry width="40" height="30" as="geometry">
            <mxRectangle width="40" height="30" as="alternateBounds" />
          </mxGeometry>
        </mxCell>
        <mxCell id="4H0bfWlm6Tqa2H4D3_Ia-29" value="id_unidad" style="shape=partialRectangle;connectable=0;fillColor=none;top=0;left=0;bottom=0;right=0;align=left;spacingLeft=6;fontStyle=5;overflow=hidden;whiteSpace=wrap;html=1;hachureGap=4;fontFamily=Architects Daughter;fontSource=https%3A%2F%2Ffonts.googleapis.com%2Fcss%3Ffamily%3DArchitects%2BDaughter;fontSize=20;rounded=0;" vertex="1" parent="4H0bfWlm6Tqa2H4D3_Ia-27">
          <mxGeometry x="40" width="140" height="30" as="geometry">
            <mxRectangle width="140" height="30" as="alternateBounds" />
          </mxGeometry>
        </mxCell>
        <mxCell id="4H0bfWlm6Tqa2H4D3_Ia-30" value="" style="shape=tableRow;horizontal=0;startSize=0;swimlaneHead=0;swimlaneBody=0;fillColor=none;collapsible=0;dropTarget=0;points=[[0,0.5],[1,0.5]];portConstraint=eastwest;top=0;left=0;right=0;bottom=0;hachureGap=4;fontFamily=Architects Daughter;fontSource=https%3A%2F%2Ffonts.googleapis.com%2Fcss%3Ffamily%3DArchitects%2BDaughter;fontSize=20;rounded=0;" vertex="1" parent="4H0bfWlm6Tqa2H4D3_Ia-26">
          <mxGeometry y="60" width="180" height="30" as="geometry" />
        </mxCell>
        <mxCell id="4H0bfWlm6Tqa2H4D3_Ia-31" value="" style="shape=partialRectangle;connectable=0;fillColor=none;top=0;left=0;bottom=0;right=0;editable=1;overflow=hidden;whiteSpace=wrap;html=1;hachureGap=4;fontFamily=Architects Daughter;fontSource=https%3A%2F%2Ffonts.googleapis.com%2Fcss%3Ffamily%3DArchitects%2BDaughter;fontSize=20;rounded=0;" vertex="1" parent="4H0bfWlm6Tqa2H4D3_Ia-30">
          <mxGeometry width="40" height="30" as="geometry">
            <mxRectangle width="40" height="30" as="alternateBounds" />
          </mxGeometry>
        </mxCell>
        <mxCell id="4H0bfWlm6Tqa2H4D3_Ia-32" value="nombre" style="shape=partialRectangle;connectable=0;fillColor=none;top=0;left=0;bottom=0;right=0;align=left;spacingLeft=6;overflow=hidden;whiteSpace=wrap;html=1;hachureGap=4;fontFamily=Architects Daughter;fontSource=https%3A%2F%2Ffonts.googleapis.com%2Fcss%3Ffamily%3DArchitects%2BDaughter;fontSize=20;rounded=0;" vertex="1" parent="4H0bfWlm6Tqa2H4D3_Ia-30">
          <mxGeometry x="40" width="140" height="30" as="geometry">
            <mxRectangle width="140" height="30" as="alternateBounds" />
          </mxGeometry>
        </mxCell>
        <mxCell id="4H0bfWlm6Tqa2H4D3_Ia-33" value="" style="shape=tableRow;horizontal=0;startSize=0;swimlaneHead=0;swimlaneBody=0;fillColor=none;collapsible=0;dropTarget=0;points=[[0,0.5],[1,0.5]];portConstraint=eastwest;top=0;left=0;right=0;bottom=0;hachureGap=4;fontFamily=Architects Daughter;fontSource=https%3A%2F%2Ffonts.googleapis.com%2Fcss%3Ffamily%3DArchitects%2BDaughter;fontSize=20;rounded=0;" vertex="1" parent="4H0bfWlm6Tqa2H4D3_Ia-26">
          <mxGeometry y="90" width="180" height="30" as="geometry" />
        </mxCell>
        <mxCell id="4H0bfWlm6Tqa2H4D3_Ia-34" value="" style="shape=partialRectangle;connectable=0;fillColor=none;top=0;left=0;bottom=0;right=0;editable=1;overflow=hidden;whiteSpace=wrap;html=1;hachureGap=4;fontFamily=Architects Daughter;fontSource=https%3A%2F%2Ffonts.googleapis.com%2Fcss%3Ffamily%3DArchitects%2BDaughter;fontSize=20;rounded=0;" vertex="1" parent="4H0bfWlm6Tqa2H4D3_Ia-33">
          <mxGeometry width="40" height="30" as="geometry">
            <mxRectangle width="40" height="30" as="alternateBounds" />
          </mxGeometry>
        </mxCell>
        <mxCell id="4H0bfWlm6Tqa2H4D3_Ia-35" value="tiempo_min" style="shape=partialRectangle;connectable=0;fillColor=none;top=0;left=0;bottom=0;right=0;align=left;spacingLeft=6;overflow=hidden;whiteSpace=wrap;html=1;hachureGap=4;fontFamily=Architects Daughter;fontSource=https%3A%2F%2Ffonts.googleapis.com%2Fcss%3Ffamily%3DArchitects%2BDaughter;fontSize=20;rounded=0;" vertex="1" parent="4H0bfWlm6Tqa2H4D3_Ia-33">
          <mxGeometry x="40" width="140" height="30" as="geometry">
            <mxRectangle width="140" height="30" as="alternateBounds" />
          </mxGeometry>
        </mxCell>
        <mxCell id="4H0bfWlm6Tqa2H4D3_Ia-39" value="auditorios" style="shape=table;startSize=30;container=1;collapsible=1;childLayout=tableLayout;fixedRows=1;rowLines=0;fontStyle=1;align=center;resizeLast=1;html=1;hachureGap=4;fontFamily=Architects Daughter;fontSource=https%3A%2F%2Ffonts.googleapis.com%2Fcss%3Ffamily%3DArchitects%2BDaughter;fontSize=20;fillColor=none;rounded=0;" vertex="1" parent="5fCRp2MowrQQEJdSjkWT-1">
          <mxGeometry x="1050" y="450" width="180" height="90" as="geometry" />
        </mxCell>
        <mxCell id="4H0bfWlm6Tqa2H4D3_Ia-43" value="" style="shape=tableRow;horizontal=0;startSize=0;swimlaneHead=0;swimlaneBody=0;fillColor=none;collapsible=0;dropTarget=0;points=[[0,0.5],[1,0.5]];portConstraint=eastwest;top=0;left=0;right=0;bottom=0;hachureGap=4;fontFamily=Architects Daughter;fontSource=https%3A%2F%2Ffonts.googleapis.com%2Fcss%3Ffamily%3DArchitects%2BDaughter;fontSize=20;rounded=0;" vertex="1" parent="4H0bfWlm6Tqa2H4D3_Ia-39">
          <mxGeometry y="30" width="180" height="30" as="geometry" />
        </mxCell>
        <mxCell id="4H0bfWlm6Tqa2H4D3_Ia-44" value="FK" style="shape=partialRectangle;connectable=0;fillColor=none;top=0;left=0;bottom=0;right=0;editable=1;overflow=hidden;whiteSpace=wrap;html=1;hachureGap=4;fontFamily=Architects Daughter;fontSource=https%3A%2F%2Ffonts.googleapis.com%2Fcss%3Ffamily%3DArchitects%2BDaughter;fontSize=20;rounded=0;" vertex="1" parent="4H0bfWlm6Tqa2H4D3_Ia-43">
          <mxGeometry width="35" height="30" as="geometry">
            <mxRectangle width="35" height="30" as="alternateBounds" />
          </mxGeometry>
        </mxCell>
        <mxCell id="4H0bfWlm6Tqa2H4D3_Ia-45" value="id_recurso" style="shape=partialRectangle;connectable=0;fillColor=none;top=0;left=0;bottom=0;right=0;align=left;spacingLeft=6;overflow=hidden;whiteSpace=wrap;html=1;hachureGap=4;fontFamily=Architects Daughter;fontSource=https%3A%2F%2Ffonts.googleapis.com%2Fcss%3Ffamily%3DArchitects%2BDaughter;fontSize=20;rounded=0;" vertex="1" parent="4H0bfWlm6Tqa2H4D3_Ia-43">
          <mxGeometry x="35" width="145" height="30" as="geometry">
            <mxRectangle width="145" height="30" as="alternateBounds" />
          </mxGeometry>
        </mxCell>
        <mxCell id="4H0bfWlm6Tqa2H4D3_Ia-46" value="" style="shape=tableRow;horizontal=0;startSize=0;swimlaneHead=0;swimlaneBody=0;fillColor=none;collapsible=0;dropTarget=0;points=[[0,0.5],[1,0.5]];portConstraint=eastwest;top=0;left=0;right=0;bottom=0;hachureGap=4;fontFamily=Architects Daughter;fontSource=https%3A%2F%2Ffonts.googleapis.com%2Fcss%3Ffamily%3DArchitects%2BDaughter;fontSize=20;rounded=0;" vertex="1" parent="4H0bfWlm6Tqa2H4D3_Ia-39">
          <mxGeometry y="60" width="180" height="30" as="geometry" />
        </mxCell>
        <mxCell id="4H0bfWlm6Tqa2H4D3_Ia-47" value="" style="shape=partialRectangle;connectable=0;fillColor=none;top=0;left=0;bottom=0;right=0;editable=1;overflow=hidden;whiteSpace=wrap;html=1;hachureGap=4;fontFamily=Architects Daughter;fontSource=https%3A%2F%2Ffonts.googleapis.com%2Fcss%3Ffamily%3DArchitects%2BDaughter;fontSize=20;rounded=0;" vertex="1" parent="4H0bfWlm6Tqa2H4D3_Ia-46">
          <mxGeometry width="35" height="30" as="geometry">
            <mxRectangle width="35" height="30" as="alternateBounds" />
          </mxGeometry>
        </mxCell>
        <mxCell id="4H0bfWlm6Tqa2H4D3_Ia-48" value="tipo_sillas" style="shape=partialRectangle;connectable=0;fillColor=none;top=0;left=0;bottom=0;right=0;align=left;spacingLeft=6;overflow=hidden;whiteSpace=wrap;html=1;hachureGap=4;fontFamily=Architects Daughter;fontSource=https%3A%2F%2Ffonts.googleapis.com%2Fcss%3Ffamily%3DArchitects%2BDaughter;fontSize=20;rounded=0;" vertex="1" parent="4H0bfWlm6Tqa2H4D3_Ia-46">
          <mxGeometry x="35" width="145" height="30" as="geometry">
            <mxRectangle width="145" height="30" as="alternateBounds" />
          </mxGeometry>
        </mxCell>
        <mxCell id="4H0bfWlm6Tqa2H4D3_Ia-60" value="salones" style="shape=table;startSize=30;container=1;collapsible=1;childLayout=tableLayout;fixedRows=1;rowLines=0;fontStyle=1;align=center;resizeLast=1;html=1;hachureGap=4;fontFamily=Architects Daughter;fontSource=https%3A%2F%2Ffonts.googleapis.com%2Fcss%3Ffamily%3DArchitects%2BDaughter;fontSize=20;rounded=0;" vertex="1" parent="5fCRp2MowrQQEJdSjkWT-1">
          <mxGeometry x="1050" y="650" width="180" height="60" as="geometry" />
        </mxCell>
        <mxCell id="4H0bfWlm6Tqa2H4D3_Ia-61" value="" style="shape=tableRow;horizontal=0;startSize=0;swimlaneHead=0;swimlaneBody=0;fillColor=none;collapsible=0;dropTarget=0;points=[[0,0.5],[1,0.5]];portConstraint=eastwest;top=0;left=0;right=0;bottom=0;hachureGap=4;fontFamily=Architects Daughter;fontSource=https%3A%2F%2Ffonts.googleapis.com%2Fcss%3Ffamily%3DArchitects%2BDaughter;fontSize=20;rounded=0;" vertex="1" parent="4H0bfWlm6Tqa2H4D3_Ia-60">
          <mxGeometry y="30" width="180" height="30" as="geometry" />
        </mxCell>
        <mxCell id="4H0bfWlm6Tqa2H4D3_Ia-62" value="FK" style="shape=partialRectangle;connectable=0;fillColor=none;top=0;left=0;bottom=0;right=0;editable=1;overflow=hidden;whiteSpace=wrap;html=1;hachureGap=4;fontFamily=Architects Daughter;fontSource=https%3A%2F%2Ffonts.googleapis.com%2Fcss%3Ffamily%3DArchitects%2BDaughter;fontSize=20;rounded=0;" vertex="1" parent="4H0bfWlm6Tqa2H4D3_Ia-61">
          <mxGeometry width="35" height="30" as="geometry">
            <mxRectangle width="35" height="30" as="alternateBounds" />
          </mxGeometry>
        </mxCell>
        <mxCell id="4H0bfWlm6Tqa2H4D3_Ia-63" value="id_recurso" style="shape=partialRectangle;connectable=0;fillColor=none;top=0;left=0;bottom=0;right=0;align=left;spacingLeft=6;overflow=hidden;whiteSpace=wrap;html=1;hachureGap=4;fontFamily=Architects Daughter;fontSource=https%3A%2F%2Ffonts.googleapis.com%2Fcss%3Ffamily%3DArchitects%2BDaughter;fontSize=20;rounded=0;" vertex="1" parent="4H0bfWlm6Tqa2H4D3_Ia-61">
          <mxGeometry x="35" width="145" height="30" as="geometry">
            <mxRectangle width="145" height="30" as="alternateBounds" />
          </mxGeometry>
        </mxCell>
        <mxCell id="4H0bfWlm6Tqa2H4D3_Ia-67" value="laboratorios" style="shape=table;startSize=30;container=1;collapsible=1;childLayout=tableLayout;fixedRows=1;rowLines=0;fontStyle=1;align=center;resizeLast=1;html=1;hachureGap=4;fontFamily=Architects Daughter;fontSource=https%3A%2F%2Ffonts.googleapis.com%2Fcss%3Ffamily%3DArchitects%2BDaughter;fontSize=20;rounded=0;" vertex="1" parent="5fCRp2MowrQQEJdSjkWT-1">
          <mxGeometry x="1050" y="550" width="180" height="90" as="geometry" />
        </mxCell>
        <mxCell id="4H0bfWlm6Tqa2H4D3_Ia-68" value="" style="shape=tableRow;horizontal=0;startSize=0;swimlaneHead=0;swimlaneBody=0;fillColor=none;collapsible=0;dropTarget=0;points=[[0,0.5],[1,0.5]];portConstraint=eastwest;top=0;left=0;right=0;bottom=0;hachureGap=4;fontFamily=Architects Daughter;fontSource=https%3A%2F%2Ffonts.googleapis.com%2Fcss%3Ffamily%3DArchitects%2BDaughter;fontSize=20;rounded=0;" vertex="1" parent="4H0bfWlm6Tqa2H4D3_Ia-67">
          <mxGeometry y="30" width="180" height="30" as="geometry" />
        </mxCell>
        <mxCell id="4H0bfWlm6Tqa2H4D3_Ia-69" value="FK" style="shape=partialRectangle;connectable=0;fillColor=none;top=0;left=0;bottom=0;right=0;editable=1;overflow=hidden;whiteSpace=wrap;html=1;hachureGap=4;fontFamily=Architects Daughter;fontSource=https%3A%2F%2Ffonts.googleapis.com%2Fcss%3Ffamily%3DArchitects%2BDaughter;fontSize=20;rounded=0;" vertex="1" parent="4H0bfWlm6Tqa2H4D3_Ia-68">
          <mxGeometry width="35" height="30" as="geometry">
            <mxRectangle width="35" height="30" as="alternateBounds" />
          </mxGeometry>
        </mxCell>
        <mxCell id="4H0bfWlm6Tqa2H4D3_Ia-70" value="id_recurso" style="shape=partialRectangle;connectable=0;fillColor=none;top=0;left=0;bottom=0;right=0;align=left;spacingLeft=6;overflow=hidden;whiteSpace=wrap;html=1;hachureGap=4;fontFamily=Architects Daughter;fontSource=https%3A%2F%2Ffonts.googleapis.com%2Fcss%3Ffamily%3DArchitects%2BDaughter;fontSize=20;rounded=0;" vertex="1" parent="4H0bfWlm6Tqa2H4D3_Ia-68">
          <mxGeometry x="35" width="145" height="30" as="geometry">
            <mxRectangle width="145" height="30" as="alternateBounds" />
          </mxGeometry>
        </mxCell>
        <mxCell id="4H0bfWlm6Tqa2H4D3_Ia-71" value="" style="shape=tableRow;horizontal=0;startSize=0;swimlaneHead=0;swimlaneBody=0;fillColor=none;collapsible=0;dropTarget=0;points=[[0,0.5],[1,0.5]];portConstraint=eastwest;top=0;left=0;right=0;bottom=0;hachureGap=4;fontFamily=Architects Daughter;fontSource=https%3A%2F%2Ffonts.googleapis.com%2Fcss%3Ffamily%3DArchitects%2BDaughter;fontSize=20;rounded=0;" vertex="1" parent="4H0bfWlm6Tqa2H4D3_Ia-67">
          <mxGeometry y="60" width="180" height="30" as="geometry" />
        </mxCell>
        <mxCell id="4H0bfWlm6Tqa2H4D3_Ia-72" value="" style="shape=partialRectangle;connectable=0;fillColor=none;top=0;left=0;bottom=0;right=0;editable=1;overflow=hidden;whiteSpace=wrap;html=1;hachureGap=4;fontFamily=Architects Daughter;fontSource=https%3A%2F%2Ffonts.googleapis.com%2Fcss%3Ffamily%3DArchitects%2BDaughter;fontSize=20;rounded=0;" vertex="1" parent="4H0bfWlm6Tqa2H4D3_Ia-71">
          <mxGeometry width="35" height="30" as="geometry">
            <mxRectangle width="35" height="30" as="alternateBounds" />
          </mxGeometry>
        </mxCell>
        <mxCell id="4H0bfWlm6Tqa2H4D3_Ia-73" value="tipo_mesas" style="shape=partialRectangle;connectable=0;fillColor=none;top=0;left=0;bottom=0;right=0;align=left;spacingLeft=6;overflow=hidden;whiteSpace=wrap;html=1;hachureGap=4;fontFamily=Architects Daughter;fontSource=https%3A%2F%2Ffonts.googleapis.com%2Fcss%3Ffamily%3DArchitects%2BDaughter;fontSize=20;rounded=0;" vertex="1" parent="4H0bfWlm6Tqa2H4D3_Ia-71">
          <mxGeometry x="35" width="145" height="30" as="geometry">
            <mxRectangle width="145" height="30" as="alternateBounds" />
          </mxGeometry>
        </mxCell>
        <mxCell id="bZ7UYTNAdsQvuoYwMl6i-0" value="horarios_recursos" style="shape=table;startSize=30;container=1;collapsible=1;childLayout=tableLayout;fixedRows=1;rowLines=0;fontStyle=1;align=center;resizeLast=1;html=1;hachureGap=4;fontFamily=Architects Daughter;fontSource=https%3A%2F%2Ffonts.googleapis.com%2Fcss%3Ffamily%3DArchitects%2BDaughter;fontSize=20;rounded=0;" vertex="1" parent="5fCRp2MowrQQEJdSjkWT-1">
          <mxGeometry x="465" y="570" width="190" height="180" as="geometry" />
        </mxCell>
        <mxCell id="bZ7UYTNAdsQvuoYwMl6i-1" value="" style="shape=tableRow;horizontal=0;startSize=0;swimlaneHead=0;swimlaneBody=0;fillColor=none;collapsible=0;dropTarget=0;points=[[0,0.5],[1,0.5]];portConstraint=eastwest;top=0;left=0;right=0;bottom=1;hachureGap=4;fontFamily=Architects Daughter;fontSource=https%3A%2F%2Ffonts.googleapis.com%2Fcss%3Ffamily%3DArchitects%2BDaughter;fontSize=20;rounded=0;" vertex="1" parent="bZ7UYTNAdsQvuoYwMl6i-0">
          <mxGeometry y="30" width="190" height="30" as="geometry" />
        </mxCell>
        <mxCell id="bZ7UYTNAdsQvuoYwMl6i-2" value="PK" style="shape=partialRectangle;connectable=0;fillColor=none;top=0;left=0;bottom=0;right=0;fontStyle=1;overflow=hidden;whiteSpace=wrap;html=1;hachureGap=4;fontFamily=Architects Daughter;fontSource=https%3A%2F%2Ffonts.googleapis.com%2Fcss%3Ffamily%3DArchitects%2BDaughter;fontSize=20;rounded=0;" vertex="1" parent="bZ7UYTNAdsQvuoYwMl6i-1">
          <mxGeometry width="40" height="30" as="geometry">
            <mxRectangle width="40" height="30" as="alternateBounds" />
          </mxGeometry>
        </mxCell>
        <mxCell id="bZ7UYTNAdsQvuoYwMl6i-3" value="id_horario" style="shape=partialRectangle;connectable=0;fillColor=none;top=0;left=0;bottom=0;right=0;align=left;spacingLeft=6;fontStyle=5;overflow=hidden;whiteSpace=wrap;html=1;hachureGap=4;fontFamily=Architects Daughter;fontSource=https%3A%2F%2Ffonts.googleapis.com%2Fcss%3Ffamily%3DArchitects%2BDaughter;fontSize=20;rounded=0;" vertex="1" parent="bZ7UYTNAdsQvuoYwMl6i-1">
          <mxGeometry x="40" width="150" height="30" as="geometry">
            <mxRectangle width="150" height="30" as="alternateBounds" />
          </mxGeometry>
        </mxCell>
        <mxCell id="bZ7UYTNAdsQvuoYwMl6i-4" value="" style="shape=tableRow;horizontal=0;startSize=0;swimlaneHead=0;swimlaneBody=0;fillColor=none;collapsible=0;dropTarget=0;points=[[0,0.5],[1,0.5]];portConstraint=eastwest;top=0;left=0;right=0;bottom=0;hachureGap=4;fontFamily=Architects Daughter;fontSource=https%3A%2F%2Ffonts.googleapis.com%2Fcss%3Ffamily%3DArchitects%2BDaughter;fontSize=20;rounded=0;" vertex="1" parent="bZ7UYTNAdsQvuoYwMl6i-0">
          <mxGeometry y="60" width="190" height="30" as="geometry" />
        </mxCell>
        <mxCell id="bZ7UYTNAdsQvuoYwMl6i-5" value="" style="shape=partialRectangle;connectable=0;fillColor=none;top=0;left=0;bottom=0;right=0;editable=1;overflow=hidden;whiteSpace=wrap;html=1;hachureGap=4;fontFamily=Architects Daughter;fontSource=https%3A%2F%2Ffonts.googleapis.com%2Fcss%3Ffamily%3DArchitects%2BDaughter;fontSize=20;rounded=0;" vertex="1" parent="bZ7UYTNAdsQvuoYwMl6i-4">
          <mxGeometry width="40" height="30" as="geometry">
            <mxRectangle width="40" height="30" as="alternateBounds" />
          </mxGeometry>
        </mxCell>
        <mxCell id="bZ7UYTNAdsQvuoYwMl6i-6" value="dia_semana" style="shape=partialRectangle;connectable=0;fillColor=none;top=0;left=0;bottom=0;right=0;align=left;spacingLeft=6;overflow=hidden;whiteSpace=wrap;html=1;hachureGap=4;fontFamily=Architects Daughter;fontSource=https%3A%2F%2Ffonts.googleapis.com%2Fcss%3Ffamily%3DArchitects%2BDaughter;fontSize=20;rounded=0;" vertex="1" parent="bZ7UYTNAdsQvuoYwMl6i-4">
          <mxGeometry x="40" width="150" height="30" as="geometry">
            <mxRectangle width="150" height="30" as="alternateBounds" />
          </mxGeometry>
        </mxCell>
        <mxCell id="bZ7UYTNAdsQvuoYwMl6i-7" value="" style="shape=tableRow;horizontal=0;startSize=0;swimlaneHead=0;swimlaneBody=0;fillColor=none;collapsible=0;dropTarget=0;points=[[0,0.5],[1,0.5]];portConstraint=eastwest;top=0;left=0;right=0;bottom=0;hachureGap=4;fontFamily=Architects Daughter;fontSource=https%3A%2F%2Ffonts.googleapis.com%2Fcss%3Ffamily%3DArchitects%2BDaughter;fontSize=20;rounded=0;" vertex="1" parent="bZ7UYTNAdsQvuoYwMl6i-0">
          <mxGeometry y="90" width="190" height="30" as="geometry" />
        </mxCell>
        <mxCell id="bZ7UYTNAdsQvuoYwMl6i-8" value="" style="shape=partialRectangle;connectable=0;fillColor=none;top=0;left=0;bottom=0;right=0;editable=1;overflow=hidden;whiteSpace=wrap;html=1;hachureGap=4;fontFamily=Architects Daughter;fontSource=https%3A%2F%2Ffonts.googleapis.com%2Fcss%3Ffamily%3DArchitects%2BDaughter;fontSize=20;rounded=0;" vertex="1" parent="bZ7UYTNAdsQvuoYwMl6i-7">
          <mxGeometry width="40" height="30" as="geometry">
            <mxRectangle width="40" height="30" as="alternateBounds" />
          </mxGeometry>
        </mxCell>
        <mxCell id="bZ7UYTNAdsQvuoYwMl6i-9" value="hora_apertura" style="shape=partialRectangle;connectable=0;fillColor=none;top=0;left=0;bottom=0;right=0;align=left;spacingLeft=6;overflow=hidden;whiteSpace=wrap;html=1;hachureGap=4;fontFamily=Architects Daughter;fontSource=https%3A%2F%2Ffonts.googleapis.com%2Fcss%3Ffamily%3DArchitects%2BDaughter;fontSize=20;rounded=0;" vertex="1" parent="bZ7UYTNAdsQvuoYwMl6i-7">
          <mxGeometry x="40" width="150" height="30" as="geometry">
            <mxRectangle width="150" height="30" as="alternateBounds" />
          </mxGeometry>
        </mxCell>
        <mxCell id="bZ7UYTNAdsQvuoYwMl6i-10" value="" style="shape=tableRow;horizontal=0;startSize=0;swimlaneHead=0;swimlaneBody=0;fillColor=none;collapsible=0;dropTarget=0;points=[[0,0.5],[1,0.5]];portConstraint=eastwest;top=0;left=0;right=0;bottom=0;hachureGap=4;fontFamily=Architects Daughter;fontSource=https%3A%2F%2Ffonts.googleapis.com%2Fcss%3Ffamily%3DArchitects%2BDaughter;fontSize=20;rounded=0;" vertex="1" parent="bZ7UYTNAdsQvuoYwMl6i-0">
          <mxGeometry y="120" width="190" height="30" as="geometry" />
        </mxCell>
        <mxCell id="bZ7UYTNAdsQvuoYwMl6i-11" value="" style="shape=partialRectangle;connectable=0;fillColor=none;top=0;left=0;bottom=0;right=0;editable=1;overflow=hidden;whiteSpace=wrap;html=1;hachureGap=4;fontFamily=Architects Daughter;fontSource=https%3A%2F%2Ffonts.googleapis.com%2Fcss%3Ffamily%3DArchitects%2BDaughter;fontSize=20;rounded=0;" vertex="1" parent="bZ7UYTNAdsQvuoYwMl6i-10">
          <mxGeometry width="40" height="30" as="geometry">
            <mxRectangle width="40" height="30" as="alternateBounds" />
          </mxGeometry>
        </mxCell>
        <mxCell id="bZ7UYTNAdsQvuoYwMl6i-12" value="hora_cierre" style="shape=partialRectangle;connectable=0;fillColor=none;top=0;left=0;bottom=0;right=0;align=left;spacingLeft=6;overflow=hidden;whiteSpace=wrap;html=1;hachureGap=4;fontFamily=Architects Daughter;fontSource=https%3A%2F%2Ffonts.googleapis.com%2Fcss%3Ffamily%3DArchitects%2BDaughter;fontSize=20;rounded=0;" vertex="1" parent="bZ7UYTNAdsQvuoYwMl6i-10">
          <mxGeometry x="40" width="150" height="30" as="geometry">
            <mxRectangle width="150" height="30" as="alternateBounds" />
          </mxGeometry>
        </mxCell>
        <mxCell id="bZ7UYTNAdsQvuoYwMl6i-16" value="" style="shape=tableRow;horizontal=0;startSize=0;swimlaneHead=0;swimlaneBody=0;fillColor=none;collapsible=0;dropTarget=0;points=[[0,0.5],[1,0.5]];portConstraint=eastwest;top=0;left=0;right=0;bottom=0;hachureGap=4;fontFamily=Architects Daughter;fontSource=https%3A%2F%2Ffonts.googleapis.com%2Fcss%3Ffamily%3DArchitects%2BDaughter;fontSize=20;rounded=0;" vertex="1" parent="bZ7UYTNAdsQvuoYwMl6i-0">
          <mxGeometry y="150" width="190" height="30" as="geometry" />
        </mxCell>
        <mxCell id="bZ7UYTNAdsQvuoYwMl6i-17" value="FK" style="shape=partialRectangle;connectable=0;fillColor=none;top=0;left=0;bottom=0;right=0;editable=1;overflow=hidden;whiteSpace=wrap;html=1;hachureGap=4;fontFamily=Architects Daughter;fontSource=https%3A%2F%2Ffonts.googleapis.com%2Fcss%3Ffamily%3DArchitects%2BDaughter;fontSize=20;rounded=0;" vertex="1" parent="bZ7UYTNAdsQvuoYwMl6i-16">
          <mxGeometry width="40" height="30" as="geometry">
            <mxRectangle width="40" height="30" as="alternateBounds" />
          </mxGeometry>
        </mxCell>
        <mxCell id="bZ7UYTNAdsQvuoYwMl6i-18" value="id_recurso" style="shape=partialRectangle;connectable=0;fillColor=none;top=0;left=0;bottom=0;right=0;align=left;spacingLeft=6;overflow=hidden;whiteSpace=wrap;html=1;hachureGap=4;fontFamily=Architects Daughter;fontSource=https%3A%2F%2Ffonts.googleapis.com%2Fcss%3Ffamily%3DArchitects%2BDaughter;fontSize=20;rounded=0;" vertex="1" parent="bZ7UYTNAdsQvuoYwMl6i-16">
          <mxGeometry x="40" width="150" height="30" as="geometry">
            <mxRectangle width="150" height="30" as="alternateBounds" />
          </mxGeometry>
        </mxCell>
        <mxCell id="bZ7UYTNAdsQvuoYwMl6i-19" value="" style="edgeStyle=entityRelationEdgeStyle;fontSize=12;html=1;endArrow=ERoneToMany;rounded=0;hachureGap=4;fontFamily=Architects Daughter;fontSource=https%3A%2F%2Ffonts.googleapis.com%2Fcss%3Ffamily%3DArchitects%2BDaughter;exitX=0;exitY=0.5;exitDx=0;exitDy=0;entryX=1;entryY=0.5;entryDx=0;entryDy=0;" edge="1" parent="5fCRp2MowrQQEJdSjkWT-1" source="4H0bfWlm6Tqa2H4D3_Ia-27" target="4H0bfWlm6Tqa2H4D3_Ia-1">
          <mxGeometry width="100" height="100" relative="1" as="geometry">
            <mxPoint x="360" y="350" as="sourcePoint" />
            <mxPoint x="460" y="250" as="targetPoint" />
          </mxGeometry>
        </mxCell>
        <mxCell id="bZ7UYTNAdsQvuoYwMl6i-20" value="" style="edgeStyle=entityRelationEdgeStyle;fontSize=12;html=1;endArrow=ERmandOne;startArrow=ERmandOne;rounded=0;hachureGap=4;fontFamily=Architects Daughter;fontSource=https%3A%2F%2Ffonts.googleapis.com%2Fcss%3Ffamily%3DArchitects%2BDaughter;exitX=0;exitY=0.5;exitDx=0;exitDy=0;entryX=1;entryY=0.5;entryDx=0;entryDy=0;" edge="1" parent="5fCRp2MowrQQEJdSjkWT-1" source="4H0bfWlm6Tqa2H4D3_Ia-43" target="4H0bfWlm6Tqa2H4D3_Ia-23">
          <mxGeometry width="100" height="100" relative="1" as="geometry">
            <mxPoint x="590" y="500" as="sourcePoint" />
            <mxPoint x="690" y="400" as="targetPoint" />
            <Array as="points">
              <mxPoint x="1020" y="570" />
            </Array>
          </mxGeometry>
        </mxCell>
        <mxCell id="bZ7UYTNAdsQvuoYwMl6i-21" value="" style="edgeStyle=entityRelationEdgeStyle;fontSize=12;html=1;endArrow=ERmandOne;startArrow=ERmandOne;rounded=0;hachureGap=4;fontFamily=Architects Daughter;fontSource=https%3A%2F%2Ffonts.googleapis.com%2Fcss%3Ffamily%3DArchitects%2BDaughter;exitX=0;exitY=0.5;exitDx=0;exitDy=0;entryX=1;entryY=0.5;entryDx=0;entryDy=0;" edge="1" parent="5fCRp2MowrQQEJdSjkWT-1" source="4H0bfWlm6Tqa2H4D3_Ia-68" target="4H0bfWlm6Tqa2H4D3_Ia-23">
          <mxGeometry width="100" height="100" relative="1" as="geometry">
            <mxPoint x="1065" y="355" as="sourcePoint" />
            <mxPoint x="970" y="415" as="targetPoint" />
          </mxGeometry>
        </mxCell>
        <mxCell id="bZ7UYTNAdsQvuoYwMl6i-22" value="" style="edgeStyle=entityRelationEdgeStyle;fontSize=12;html=1;endArrow=ERmandOne;startArrow=ERmandOne;rounded=0;hachureGap=4;fontFamily=Architects Daughter;fontSource=https%3A%2F%2Ffonts.googleapis.com%2Fcss%3Ffamily%3DArchitects%2BDaughter;exitX=0;exitY=0.5;exitDx=0;exitDy=0;entryX=1;entryY=0.5;entryDx=0;entryDy=0;" edge="1" parent="5fCRp2MowrQQEJdSjkWT-1" source="4H0bfWlm6Tqa2H4D3_Ia-61" target="4H0bfWlm6Tqa2H4D3_Ia-23">
          <mxGeometry width="100" height="100" relative="1" as="geometry">
            <mxPoint x="1065" y="465" as="sourcePoint" />
            <mxPoint x="970" y="415" as="targetPoint" />
          </mxGeometry>
        </mxCell>
        <mxCell id="bZ7UYTNAdsQvuoYwMl6i-23" value="" style="edgeStyle=entityRelationEdgeStyle;fontSize=12;html=1;endArrow=ERoneToMany;rounded=0;hachureGap=4;fontFamily=Architects Daughter;fontSource=https%3A%2F%2Ffonts.googleapis.com%2Fcss%3Ffamily%3DArchitects%2BDaughter;exitX=0;exitY=0.5;exitDx=0;exitDy=0;entryX=1;entryY=0.5;entryDx=0;entryDy=0;" edge="1" parent="5fCRp2MowrQQEJdSjkWT-1" source="4H0bfWlm6Tqa2H4D3_Ia-17" target="bZ7UYTNAdsQvuoYwMl6i-1">
          <mxGeometry width="100" height="100" relative="1" as="geometry">
            <mxPoint x="720" y="594" as="sourcePoint" />
            <mxPoint x="720" y="470" as="targetPoint" />
          </mxGeometry>
        </mxCell>
        <mxCell id="vJgWtABvDZy4ehGi9gaB-0" value="unidades_recursos" style="shape=table;startSize=30;container=1;collapsible=1;childLayout=tableLayout;fixedRows=1;rowLines=0;fontStyle=1;align=center;resizeLast=1;html=1;hachureGap=4;fontFamily=Architects Daughter;fontSource=https%3A%2F%2Ffonts.googleapis.com%2Fcss%3Ffamily%3DArchitects%2BDaughter;fontSize=20;rounded=0;" vertex="1" parent="5fCRp2MowrQQEJdSjkWT-1">
          <mxGeometry x="460" y="460" width="200" height="90" as="geometry" />
        </mxCell>
        <mxCell id="vJgWtABvDZy4ehGi9gaB-4" value="" style="shape=tableRow;horizontal=0;startSize=0;swimlaneHead=0;swimlaneBody=0;fillColor=none;collapsible=0;dropTarget=0;points=[[0,0.5],[1,0.5]];portConstraint=eastwest;top=0;left=0;right=0;bottom=0;hachureGap=4;fontFamily=Architects Daughter;fontSource=https%3A%2F%2Ffonts.googleapis.com%2Fcss%3Ffamily%3DArchitects%2BDaughter;fontSize=20;rounded=0;" vertex="1" parent="vJgWtABvDZy4ehGi9gaB-0">
          <mxGeometry y="30" width="200" height="30" as="geometry" />
        </mxCell>
        <mxCell id="vJgWtABvDZy4ehGi9gaB-5" value="FK" style="shape=partialRectangle;connectable=0;fillColor=none;top=0;left=0;bottom=0;right=0;editable=1;overflow=hidden;whiteSpace=wrap;html=1;hachureGap=4;fontFamily=Architects Daughter;fontSource=https%3A%2F%2Ffonts.googleapis.com%2Fcss%3Ffamily%3DArchitects%2BDaughter;fontSize=20;rounded=0;" vertex="1" parent="vJgWtABvDZy4ehGi9gaB-4">
          <mxGeometry width="40" height="30" as="geometry">
            <mxRectangle width="40" height="30" as="alternateBounds" />
          </mxGeometry>
        </mxCell>
        <mxCell id="vJgWtABvDZy4ehGi9gaB-6" value="id_unidad" style="shape=partialRectangle;connectable=0;fillColor=none;top=0;left=0;bottom=0;right=0;align=left;spacingLeft=6;overflow=hidden;whiteSpace=wrap;html=1;hachureGap=4;fontFamily=Architects Daughter;fontSource=https%3A%2F%2Ffonts.googleapis.com%2Fcss%3Ffamily%3DArchitects%2BDaughter;fontSize=20;rounded=0;" vertex="1" parent="vJgWtABvDZy4ehGi9gaB-4">
          <mxGeometry x="40" width="160" height="30" as="geometry">
            <mxRectangle width="160" height="30" as="alternateBounds" />
          </mxGeometry>
        </mxCell>
        <mxCell id="vJgWtABvDZy4ehGi9gaB-7" value="" style="shape=tableRow;horizontal=0;startSize=0;swimlaneHead=0;swimlaneBody=0;fillColor=none;collapsible=0;dropTarget=0;points=[[0,0.5],[1,0.5]];portConstraint=eastwest;top=0;left=0;right=0;bottom=0;hachureGap=4;fontFamily=Architects Daughter;fontSource=https%3A%2F%2Ffonts.googleapis.com%2Fcss%3Ffamily%3DArchitects%2BDaughter;fontSize=20;rounded=0;" vertex="1" parent="vJgWtABvDZy4ehGi9gaB-0">
          <mxGeometry y="60" width="200" height="30" as="geometry" />
        </mxCell>
        <mxCell id="vJgWtABvDZy4ehGi9gaB-8" value="FK" style="shape=partialRectangle;connectable=0;fillColor=none;top=0;left=0;bottom=0;right=0;editable=1;overflow=hidden;whiteSpace=wrap;html=1;hachureGap=4;fontFamily=Architects Daughter;fontSource=https%3A%2F%2Ffonts.googleapis.com%2Fcss%3Ffamily%3DArchitects%2BDaughter;fontSize=20;rounded=0;" vertex="1" parent="vJgWtABvDZy4ehGi9gaB-7">
          <mxGeometry width="40" height="30" as="geometry">
            <mxRectangle width="40" height="30" as="alternateBounds" />
          </mxGeometry>
        </mxCell>
        <mxCell id="vJgWtABvDZy4ehGi9gaB-9" value="id_recurso" style="shape=partialRectangle;connectable=0;fillColor=none;top=0;left=0;bottom=0;right=0;align=left;spacingLeft=6;overflow=hidden;whiteSpace=wrap;html=1;hachureGap=4;fontFamily=Architects Daughter;fontSource=https%3A%2F%2Ffonts.googleapis.com%2Fcss%3Ffamily%3DArchitects%2BDaughter;fontSize=20;rounded=0;" vertex="1" parent="vJgWtABvDZy4ehGi9gaB-7">
          <mxGeometry x="40" width="160" height="30" as="geometry">
            <mxRectangle width="160" height="30" as="alternateBounds" />
          </mxGeometry>
        </mxCell>
        <mxCell id="vJgWtABvDZy4ehGi9gaB-13" value="" style="edgeStyle=entityRelationEdgeStyle;fontSize=12;html=1;endArrow=ERoneToMany;rounded=0;hachureGap=4;fontFamily=Architects Daughter;fontSource=https%3A%2F%2Ffonts.googleapis.com%2Fcss%3Ffamily%3DArchitects%2BDaughter;exitX=1;exitY=0.5;exitDx=0;exitDy=0;entryX=0;entryY=0.5;entryDx=0;entryDy=0;" edge="1" parent="5fCRp2MowrQQEJdSjkWT-1" source="4H0bfWlm6Tqa2H4D3_Ia-27" target="vJgWtABvDZy4ehGi9gaB-4">
          <mxGeometry width="100" height="100" relative="1" as="geometry">
            <mxPoint x="750" y="660" as="sourcePoint" />
            <mxPoint x="440" y="570" as="targetPoint" />
          </mxGeometry>
        </mxCell>
        <mxCell id="vJgWtABvDZy4ehGi9gaB-14" value="" style="edgeStyle=entityRelationEdgeStyle;fontSize=12;html=1;endArrow=ERoneToMany;rounded=0;hachureGap=4;fontFamily=Architects Daughter;fontSource=https%3A%2F%2Ffonts.googleapis.com%2Fcss%3Ffamily%3DArchitects%2BDaughter;entryX=1;entryY=0.5;entryDx=0;entryDy=0;exitX=0;exitY=0.5;exitDx=0;exitDy=0;" edge="1" parent="5fCRp2MowrQQEJdSjkWT-1" source="4H0bfWlm6Tqa2H4D3_Ia-14" target="vJgWtABvDZy4ehGi9gaB-7">
          <mxGeometry width="100" height="100" relative="1" as="geometry">
            <mxPoint x="800" y="615" as="sourcePoint" />
            <mxPoint x="470" y="425" as="targetPoint" />
          </mxGeometry>
        </mxCell>
        <mxCell id="bwWEXVRHiR8TQFQIUz_v-0" value="reservas" style="shape=table;startSize=30;container=1;collapsible=1;childLayout=tableLayout;fixedRows=1;rowLines=0;fontStyle=1;align=center;resizeLast=1;html=1;hachureGap=4;fontFamily=Architects Daughter;fontSource=https%3A%2F%2Ffonts.googleapis.com%2Fcss%3Ffamily%3DArchitects%2BDaughter;fontSize=20;rounded=0;" vertex="1" parent="5fCRp2MowrQQEJdSjkWT-1">
          <mxGeometry x="1050" y="190" width="180" height="210" as="geometry" />
        </mxCell>
        <mxCell id="bwWEXVRHiR8TQFQIUz_v-1" value="" style="shape=tableRow;horizontal=0;startSize=0;swimlaneHead=0;swimlaneBody=0;fillColor=none;collapsible=0;dropTarget=0;points=[[0,0.5],[1,0.5]];portConstraint=eastwest;top=0;left=0;right=0;bottom=1;hachureGap=4;fontFamily=Architects Daughter;fontSource=https%3A%2F%2Ffonts.googleapis.com%2Fcss%3Ffamily%3DArchitects%2BDaughter;fontSize=20;rounded=0;" vertex="1" parent="bwWEXVRHiR8TQFQIUz_v-0">
          <mxGeometry y="30" width="180" height="30" as="geometry" />
        </mxCell>
        <mxCell id="bwWEXVRHiR8TQFQIUz_v-2" value="PK" style="shape=partialRectangle;connectable=0;fillColor=none;top=0;left=0;bottom=0;right=0;fontStyle=1;overflow=hidden;whiteSpace=wrap;html=1;hachureGap=4;fontFamily=Architects Daughter;fontSource=https%3A%2F%2Ffonts.googleapis.com%2Fcss%3Ffamily%3DArchitects%2BDaughter;fontSize=20;rounded=0;" vertex="1" parent="bwWEXVRHiR8TQFQIUz_v-1">
          <mxGeometry width="39.99999999999977" height="30" as="geometry">
            <mxRectangle width="39.99999999999977" height="30" as="alternateBounds" />
          </mxGeometry>
        </mxCell>
        <mxCell id="bwWEXVRHiR8TQFQIUz_v-3" value="id_reserva" style="shape=partialRectangle;connectable=0;fillColor=none;top=0;left=0;bottom=0;right=0;align=left;spacingLeft=6;fontStyle=5;overflow=hidden;whiteSpace=wrap;html=1;hachureGap=4;fontFamily=Architects Daughter;fontSource=https%3A%2F%2Ffonts.googleapis.com%2Fcss%3Ffamily%3DArchitects%2BDaughter;fontSize=20;rounded=0;" vertex="1" parent="bwWEXVRHiR8TQFQIUz_v-1">
          <mxGeometry x="39.99999999999977" width="140.00000000000023" height="30" as="geometry">
            <mxRectangle width="140.00000000000023" height="30" as="alternateBounds" />
          </mxGeometry>
        </mxCell>
        <mxCell id="AYlqEimF5Jc2JHBmSOLI-0" value="" style="shape=tableRow;horizontal=0;startSize=0;swimlaneHead=0;swimlaneBody=0;fillColor=none;collapsible=0;dropTarget=0;points=[[0,0.5],[1,0.5]];portConstraint=eastwest;top=0;left=0;right=0;bottom=0;hachureGap=4;fontFamily=Architects Daughter;fontSource=https%3A%2F%2Ffonts.googleapis.com%2Fcss%3Ffamily%3DArchitects%2BDaughter;fontSize=20;rounded=0;" vertex="1" parent="bwWEXVRHiR8TQFQIUz_v-0">
          <mxGeometry y="60" width="180" height="30" as="geometry" />
        </mxCell>
        <mxCell id="AYlqEimF5Jc2JHBmSOLI-1" value="" style="shape=partialRectangle;connectable=0;fillColor=none;top=0;left=0;bottom=0;right=0;editable=1;overflow=hidden;whiteSpace=wrap;html=1;hachureGap=4;fontFamily=Architects Daughter;fontSource=https%3A%2F%2Ffonts.googleapis.com%2Fcss%3Ffamily%3DArchitects%2BDaughter;fontSize=20;rounded=0;" vertex="1" parent="AYlqEimF5Jc2JHBmSOLI-0">
          <mxGeometry width="39.99999999999977" height="30" as="geometry">
            <mxRectangle width="39.99999999999977" height="30" as="alternateBounds" />
          </mxGeometry>
        </mxCell>
        <mxCell id="AYlqEimF5Jc2JHBmSOLI-2" value="hora_inicio" style="shape=partialRectangle;connectable=0;fillColor=none;top=0;left=0;bottom=0;right=0;align=left;spacingLeft=6;overflow=hidden;whiteSpace=wrap;html=1;hachureGap=4;fontFamily=Architects Daughter;fontSource=https%3A%2F%2Ffonts.googleapis.com%2Fcss%3Ffamily%3DArchitects%2BDaughter;fontSize=20;rounded=0;" vertex="1" parent="AYlqEimF5Jc2JHBmSOLI-0">
          <mxGeometry x="39.99999999999977" width="140.00000000000023" height="30" as="geometry">
            <mxRectangle width="140.00000000000023" height="30" as="alternateBounds" />
          </mxGeometry>
        </mxCell>
        <mxCell id="nQjMOaGXVurp3eLge9k--0" value="" style="shape=tableRow;horizontal=0;startSize=0;swimlaneHead=0;swimlaneBody=0;fillColor=none;collapsible=0;dropTarget=0;points=[[0,0.5],[1,0.5]];portConstraint=eastwest;top=0;left=0;right=0;bottom=0;hachureGap=4;fontFamily=Architects Daughter;fontSource=https%3A%2F%2Ffonts.googleapis.com%2Fcss%3Ffamily%3DArchitects%2BDaughter;fontSize=20;rounded=0;" vertex="1" parent="bwWEXVRHiR8TQFQIUz_v-0">
          <mxGeometry y="90" width="180" height="30" as="geometry" />
        </mxCell>
        <mxCell id="nQjMOaGXVurp3eLge9k--1" value="" style="shape=partialRectangle;connectable=0;fillColor=none;top=0;left=0;bottom=0;right=0;editable=1;overflow=hidden;whiteSpace=wrap;html=1;hachureGap=4;fontFamily=Architects Daughter;fontSource=https%3A%2F%2Ffonts.googleapis.com%2Fcss%3Ffamily%3DArchitects%2BDaughter;fontSize=20;rounded=0;" vertex="1" parent="nQjMOaGXVurp3eLge9k--0">
          <mxGeometry width="39.99999999999977" height="30" as="geometry">
            <mxRectangle width="39.99999999999977" height="30" as="alternateBounds" />
          </mxGeometry>
        </mxCell>
        <mxCell id="nQjMOaGXVurp3eLge9k--2" value="hora_final" style="shape=partialRectangle;connectable=0;fillColor=none;top=0;left=0;bottom=0;right=0;align=left;spacingLeft=6;overflow=hidden;whiteSpace=wrap;html=1;hachureGap=4;fontFamily=Architects Daughter;fontSource=https%3A%2F%2Ffonts.googleapis.com%2Fcss%3Ffamily%3DArchitects%2BDaughter;fontSize=20;rounded=0;" vertex="1" parent="nQjMOaGXVurp3eLge9k--0">
          <mxGeometry x="39.99999999999977" width="140.00000000000023" height="30" as="geometry">
            <mxRectangle width="140.00000000000023" height="30" as="alternateBounds" />
          </mxGeometry>
        </mxCell>
        <mxCell id="nQjMOaGXVurp3eLge9k--3" value="" style="shape=tableRow;horizontal=0;startSize=0;swimlaneHead=0;swimlaneBody=0;fillColor=none;collapsible=0;dropTarget=0;points=[[0,0.5],[1,0.5]];portConstraint=eastwest;top=0;left=0;right=0;bottom=0;hachureGap=4;fontFamily=Architects Daughter;fontSource=https%3A%2F%2Ffonts.googleapis.com%2Fcss%3Ffamily%3DArchitects%2BDaughter;fontSize=20;rounded=0;" vertex="1" parent="bwWEXVRHiR8TQFQIUz_v-0">
          <mxGeometry y="120" width="180" height="30" as="geometry" />
        </mxCell>
        <mxCell id="nQjMOaGXVurp3eLge9k--4" value="" style="shape=partialRectangle;connectable=0;fillColor=none;top=0;left=0;bottom=0;right=0;editable=1;overflow=hidden;whiteSpace=wrap;html=1;hachureGap=4;fontFamily=Architects Daughter;fontSource=https%3A%2F%2Ffonts.googleapis.com%2Fcss%3Ffamily%3DArchitects%2BDaughter;fontSize=20;rounded=0;" vertex="1" parent="nQjMOaGXVurp3eLge9k--3">
          <mxGeometry width="39.99999999999977" height="30" as="geometry">
            <mxRectangle width="39.99999999999977" height="30" as="alternateBounds" />
          </mxGeometry>
        </mxCell>
        <mxCell id="nQjMOaGXVurp3eLge9k--5" value="fecha_inicio" style="shape=partialRectangle;connectable=0;fillColor=none;top=0;left=0;bottom=0;right=0;align=left;spacingLeft=6;overflow=hidden;whiteSpace=wrap;html=1;hachureGap=4;fontFamily=Architects Daughter;fontSource=https%3A%2F%2Ffonts.googleapis.com%2Fcss%3Ffamily%3DArchitects%2BDaughter;fontSize=20;rounded=0;" vertex="1" parent="nQjMOaGXVurp3eLge9k--3">
          <mxGeometry x="39.99999999999977" width="140.00000000000023" height="30" as="geometry">
            <mxRectangle width="140.00000000000023" height="30" as="alternateBounds" />
          </mxGeometry>
        </mxCell>
        <mxCell id="nQjMOaGXVurp3eLge9k--6" value="" style="shape=tableRow;horizontal=0;startSize=0;swimlaneHead=0;swimlaneBody=0;fillColor=none;collapsible=0;dropTarget=0;points=[[0,0.5],[1,0.5]];portConstraint=eastwest;top=0;left=0;right=0;bottom=0;hachureGap=4;fontFamily=Architects Daughter;fontSource=https%3A%2F%2Ffonts.googleapis.com%2Fcss%3Ffamily%3DArchitects%2BDaughter;fontSize=20;rounded=0;" vertex="1" parent="bwWEXVRHiR8TQFQIUz_v-0">
          <mxGeometry y="150" width="180" height="30" as="geometry" />
        </mxCell>
        <mxCell id="nQjMOaGXVurp3eLge9k--7" value="" style="shape=partialRectangle;connectable=0;fillColor=none;top=0;left=0;bottom=0;right=0;editable=1;overflow=hidden;whiteSpace=wrap;html=1;hachureGap=4;fontFamily=Architects Daughter;fontSource=https%3A%2F%2Ffonts.googleapis.com%2Fcss%3Ffamily%3DArchitects%2BDaughter;fontSize=20;rounded=0;" vertex="1" parent="nQjMOaGXVurp3eLge9k--6">
          <mxGeometry width="39.99999999999977" height="30" as="geometry">
            <mxRectangle width="39.99999999999977" height="30" as="alternateBounds" />
          </mxGeometry>
        </mxCell>
        <mxCell id="nQjMOaGXVurp3eLge9k--8" value="fecha_final" style="shape=partialRectangle;connectable=0;fillColor=none;top=0;left=0;bottom=0;right=0;align=left;spacingLeft=6;overflow=hidden;whiteSpace=wrap;html=1;hachureGap=4;fontFamily=Architects Daughter;fontSource=https%3A%2F%2Ffonts.googleapis.com%2Fcss%3Ffamily%3DArchitects%2BDaughter;fontSize=20;rounded=0;" vertex="1" parent="nQjMOaGXVurp3eLge9k--6">
          <mxGeometry x="39.99999999999977" width="140.00000000000023" height="30" as="geometry">
            <mxRectangle width="140.00000000000023" height="30" as="alternateBounds" />
          </mxGeometry>
        </mxCell>
        <mxCell id="nQjMOaGXVurp3eLge9k--9" value="" style="shape=tableRow;horizontal=0;startSize=0;swimlaneHead=0;swimlaneBody=0;fillColor=none;collapsible=0;dropTarget=0;points=[[0,0.5],[1,0.5]];portConstraint=eastwest;top=0;left=0;right=0;bottom=0;hachureGap=4;fontFamily=Architects Daughter;fontSource=https%3A%2F%2Ffonts.googleapis.com%2Fcss%3Ffamily%3DArchitects%2BDaughter;fontSize=20;rounded=0;" vertex="1" parent="bwWEXVRHiR8TQFQIUz_v-0">
          <mxGeometry y="180" width="180" height="30" as="geometry" />
        </mxCell>
        <mxCell id="nQjMOaGXVurp3eLge9k--10" value="FK" style="shape=partialRectangle;connectable=0;fillColor=none;top=0;left=0;bottom=0;right=0;editable=1;overflow=hidden;whiteSpace=wrap;html=1;hachureGap=4;fontFamily=Architects Daughter;fontSource=https%3A%2F%2Ffonts.googleapis.com%2Fcss%3Ffamily%3DArchitects%2BDaughter;fontSize=20;rounded=0;" vertex="1" parent="nQjMOaGXVurp3eLge9k--9">
          <mxGeometry width="39.99999999999977" height="30" as="geometry">
            <mxRectangle width="39.99999999999977" height="30" as="alternateBounds" />
          </mxGeometry>
        </mxCell>
        <mxCell id="nQjMOaGXVurp3eLge9k--11" value="id_recurso" style="shape=partialRectangle;connectable=0;fillColor=none;top=0;left=0;bottom=0;right=0;align=left;spacingLeft=6;overflow=hidden;whiteSpace=wrap;html=1;hachureGap=4;fontFamily=Architects Daughter;fontSource=https%3A%2F%2Ffonts.googleapis.com%2Fcss%3Ffamily%3DArchitects%2BDaughter;fontSize=20;rounded=0;" vertex="1" parent="nQjMOaGXVurp3eLge9k--9">
          <mxGeometry x="39.99999999999977" width="140.00000000000023" height="30" as="geometry">
            <mxRectangle width="140.00000000000023" height="30" as="alternateBounds" />
          </mxGeometry>
        </mxCell>
        <mxCell id="bwWEXVRHiR8TQFQIUz_v-13" value="" style="edgeStyle=entityRelationEdgeStyle;fontSize=12;html=1;endArrow=ERmandOne;startArrow=ERmandOne;rounded=0;hachureGap=4;fontFamily=Architects Daughter;fontSource=https%3A%2F%2Ffonts.googleapis.com%2Fcss%3Ffamily%3DArchitects%2BDaughter;entryX=0;entryY=0.5;entryDx=0;entryDy=0;exitX=1;exitY=0.5;exitDx=0;exitDy=0;" edge="1" parent="5fCRp2MowrQQEJdSjkWT-1" source="4H0bfWlm6Tqa2H4D3_Ia-14" target="bwWEXVRHiR8TQFQIUz_v-1">
          <mxGeometry width="100" height="100" relative="1" as="geometry">
            <mxPoint x="970" y="560" as="sourcePoint" />
            <mxPoint x="650" y="90" as="targetPoint" />
          </mxGeometry>
        </mxCell>
        <mxCell id="bwWEXVRHiR8TQFQIUz_v-14" value="personas" style="shape=table;startSize=30;container=1;collapsible=1;childLayout=tableLayout;fixedRows=1;rowLines=0;fontStyle=1;align=center;resizeLast=1;html=1;hachureGap=4;fontFamily=Architects Daughter;fontSource=https%3A%2F%2Ffonts.googleapis.com%2Fcss%3Ffamily%3DArchitects%2BDaughter;fontSize=20;rounded=0;" vertex="1" parent="5fCRp2MowrQQEJdSjkWT-1">
          <mxGeometry x="160" y="70" width="205" height="150" as="geometry" />
        </mxCell>
        <mxCell id="bwWEXVRHiR8TQFQIUz_v-15" value="" style="shape=tableRow;horizontal=0;startSize=0;swimlaneHead=0;swimlaneBody=0;fillColor=none;collapsible=0;dropTarget=0;points=[[0,0.5],[1,0.5]];portConstraint=eastwest;top=0;left=0;right=0;bottom=1;hachureGap=4;fontFamily=Architects Daughter;fontSource=https%3A%2F%2Ffonts.googleapis.com%2Fcss%3Ffamily%3DArchitects%2BDaughter;fontSize=20;rounded=0;" vertex="1" parent="bwWEXVRHiR8TQFQIUz_v-14">
          <mxGeometry y="30" width="205" height="30" as="geometry" />
        </mxCell>
        <mxCell id="bwWEXVRHiR8TQFQIUz_v-16" value="PK" style="shape=partialRectangle;connectable=0;fillColor=none;top=0;left=0;bottom=0;right=0;fontStyle=1;overflow=hidden;whiteSpace=wrap;html=1;hachureGap=4;fontFamily=Architects Daughter;fontSource=https%3A%2F%2Ffonts.googleapis.com%2Fcss%3Ffamily%3DArchitects%2BDaughter;fontSize=20;rounded=0;" vertex="1" parent="bwWEXVRHiR8TQFQIUz_v-15">
          <mxGeometry width="35" height="30" as="geometry">
            <mxRectangle width="35" height="30" as="alternateBounds" />
          </mxGeometry>
        </mxCell>
        <mxCell id="bwWEXVRHiR8TQFQIUz_v-17" value="id_persona" style="shape=partialRectangle;connectable=0;fillColor=none;top=0;left=0;bottom=0;right=0;align=left;spacingLeft=6;fontStyle=5;overflow=hidden;whiteSpace=wrap;html=1;hachureGap=4;fontFamily=Architects Daughter;fontSource=https%3A%2F%2Ffonts.googleapis.com%2Fcss%3Ffamily%3DArchitects%2BDaughter;fontSize=20;rounded=0;" vertex="1" parent="bwWEXVRHiR8TQFQIUz_v-15">
          <mxGeometry x="35" width="170" height="30" as="geometry">
            <mxRectangle width="170" height="30" as="alternateBounds" />
          </mxGeometry>
        </mxCell>
        <mxCell id="bwWEXVRHiR8TQFQIUz_v-18" value="" style="shape=tableRow;horizontal=0;startSize=0;swimlaneHead=0;swimlaneBody=0;fillColor=none;collapsible=0;dropTarget=0;points=[[0,0.5],[1,0.5]];portConstraint=eastwest;top=0;left=0;right=0;bottom=0;hachureGap=4;fontFamily=Architects Daughter;fontSource=https%3A%2F%2Ffonts.googleapis.com%2Fcss%3Ffamily%3DArchitects%2BDaughter;fontSize=20;rounded=0;" vertex="1" parent="bwWEXVRHiR8TQFQIUz_v-14">
          <mxGeometry y="60" width="205" height="30" as="geometry" />
        </mxCell>
        <mxCell id="bwWEXVRHiR8TQFQIUz_v-19" value="" style="shape=partialRectangle;connectable=0;fillColor=none;top=0;left=0;bottom=0;right=0;editable=1;overflow=hidden;whiteSpace=wrap;html=1;hachureGap=4;fontFamily=Architects Daughter;fontSource=https%3A%2F%2Ffonts.googleapis.com%2Fcss%3Ffamily%3DArchitects%2BDaughter;fontSize=20;rounded=0;" vertex="1" parent="bwWEXVRHiR8TQFQIUz_v-18">
          <mxGeometry width="35" height="30" as="geometry">
            <mxRectangle width="35" height="30" as="alternateBounds" />
          </mxGeometry>
        </mxCell>
        <mxCell id="bwWEXVRHiR8TQFQIUz_v-20" value="nombre_usuario" style="shape=partialRectangle;connectable=0;fillColor=none;top=0;left=0;bottom=0;right=0;align=left;spacingLeft=6;overflow=hidden;whiteSpace=wrap;html=1;hachureGap=4;fontFamily=Architects Daughter;fontSource=https%3A%2F%2Ffonts.googleapis.com%2Fcss%3Ffamily%3DArchitects%2BDaughter;fontSize=20;rounded=0;" vertex="1" parent="bwWEXVRHiR8TQFQIUz_v-18">
          <mxGeometry x="35" width="170" height="30" as="geometry">
            <mxRectangle width="170" height="30" as="alternateBounds" />
          </mxGeometry>
        </mxCell>
        <mxCell id="bwWEXVRHiR8TQFQIUz_v-21" value="" style="shape=tableRow;horizontal=0;startSize=0;swimlaneHead=0;swimlaneBody=0;fillColor=none;collapsible=0;dropTarget=0;points=[[0,0.5],[1,0.5]];portConstraint=eastwest;top=0;left=0;right=0;bottom=0;hachureGap=4;fontFamily=Architects Daughter;fontSource=https%3A%2F%2Ffonts.googleapis.com%2Fcss%3Ffamily%3DArchitects%2BDaughter;fontSize=20;rounded=0;" vertex="1" parent="bwWEXVRHiR8TQFQIUz_v-14">
          <mxGeometry y="90" width="205" height="30" as="geometry" />
        </mxCell>
        <mxCell id="bwWEXVRHiR8TQFQIUz_v-22" value="" style="shape=partialRectangle;connectable=0;fillColor=none;top=0;left=0;bottom=0;right=0;editable=1;overflow=hidden;whiteSpace=wrap;html=1;hachureGap=4;fontFamily=Architects Daughter;fontSource=https%3A%2F%2Ffonts.googleapis.com%2Fcss%3Ffamily%3DArchitects%2BDaughter;fontSize=20;rounded=0;" vertex="1" parent="bwWEXVRHiR8TQFQIUz_v-21">
          <mxGeometry width="35" height="30" as="geometry">
            <mxRectangle width="35" height="30" as="alternateBounds" />
          </mxGeometry>
        </mxCell>
        <mxCell id="bwWEXVRHiR8TQFQIUz_v-23" value="correo" style="shape=partialRectangle;connectable=0;fillColor=none;top=0;left=0;bottom=0;right=0;align=left;spacingLeft=6;overflow=hidden;whiteSpace=wrap;html=1;hachureGap=4;fontFamily=Architects Daughter;fontSource=https%3A%2F%2Ffonts.googleapis.com%2Fcss%3Ffamily%3DArchitects%2BDaughter;fontSize=20;rounded=0;" vertex="1" parent="bwWEXVRHiR8TQFQIUz_v-21">
          <mxGeometry x="35" width="170" height="30" as="geometry">
            <mxRectangle width="170" height="30" as="alternateBounds" />
          </mxGeometry>
        </mxCell>
        <mxCell id="bwWEXVRHiR8TQFQIUz_v-24" value="" style="shape=tableRow;horizontal=0;startSize=0;swimlaneHead=0;swimlaneBody=0;fillColor=none;collapsible=0;dropTarget=0;points=[[0,0.5],[1,0.5]];portConstraint=eastwest;top=0;left=0;right=0;bottom=0;hachureGap=4;fontFamily=Architects Daughter;fontSource=https%3A%2F%2Ffonts.googleapis.com%2Fcss%3Ffamily%3DArchitects%2BDaughter;fontSize=20;rounded=0;" vertex="1" parent="bwWEXVRHiR8TQFQIUz_v-14">
          <mxGeometry y="120" width="205" height="30" as="geometry" />
        </mxCell>
        <mxCell id="bwWEXVRHiR8TQFQIUz_v-25" value="" style="shape=partialRectangle;connectable=0;fillColor=none;top=0;left=0;bottom=0;right=0;editable=1;overflow=hidden;whiteSpace=wrap;html=1;hachureGap=4;fontFamily=Architects Daughter;fontSource=https%3A%2F%2Ffonts.googleapis.com%2Fcss%3Ffamily%3DArchitects%2BDaughter;fontSize=20;rounded=0;" vertex="1" parent="bwWEXVRHiR8TQFQIUz_v-24">
          <mxGeometry width="35" height="30" as="geometry">
            <mxRectangle width="35" height="30" as="alternateBounds" />
          </mxGeometry>
        </mxCell>
        <mxCell id="bwWEXVRHiR8TQFQIUz_v-26" value="contrasenia" style="shape=partialRectangle;connectable=0;fillColor=none;top=0;left=0;bottom=0;right=0;align=left;spacingLeft=6;overflow=hidden;whiteSpace=wrap;html=1;hachureGap=4;fontFamily=Architects Daughter;fontSource=https%3A%2F%2Ffonts.googleapis.com%2Fcss%3Ffamily%3DArchitects%2BDaughter;fontSize=20;rounded=0;" vertex="1" parent="bwWEXVRHiR8TQFQIUz_v-24">
          <mxGeometry x="35" width="170" height="30" as="geometry">
            <mxRectangle width="170" height="30" as="alternateBounds" />
          </mxGeometry>
        </mxCell>
        <mxCell id="67D5E8ITKbRi9ClhXfx1-0" value="usuarios" style="shape=table;startSize=30;container=1;collapsible=1;childLayout=tableLayout;fixedRows=1;rowLines=0;fontStyle=1;align=center;resizeLast=1;html=1;hachureGap=4;fontFamily=Architects Daughter;fontSource=https%3A%2F%2Ffonts.googleapis.com%2Fcss%3Ffamily%3DArchitects%2BDaughter;fontSize=20;rounded=0;" vertex="1" parent="5fCRp2MowrQQEJdSjkWT-1">
          <mxGeometry x="470" y="70" width="180" height="60" as="geometry" />
        </mxCell>
        <mxCell id="67D5E8ITKbRi9ClhXfx1-4" value="" style="shape=tableRow;horizontal=0;startSize=0;swimlaneHead=0;swimlaneBody=0;fillColor=none;collapsible=0;dropTarget=0;points=[[0,0.5],[1,0.5]];portConstraint=eastwest;top=0;left=0;right=0;bottom=0;hachureGap=4;fontFamily=Architects Daughter;fontSource=https%3A%2F%2Ffonts.googleapis.com%2Fcss%3Ffamily%3DArchitects%2BDaughter;fontSize=20;rounded=0;" vertex="1" parent="67D5E8ITKbRi9ClhXfx1-0">
          <mxGeometry y="30" width="180" height="30" as="geometry" />
        </mxCell>
        <mxCell id="67D5E8ITKbRi9ClhXfx1-5" value="FK" style="shape=partialRectangle;connectable=0;fillColor=none;top=0;left=0;bottom=0;right=0;editable=1;overflow=hidden;whiteSpace=wrap;html=1;hachureGap=4;fontFamily=Architects Daughter;fontSource=https%3A%2F%2Ffonts.googleapis.com%2Fcss%3Ffamily%3DArchitects%2BDaughter;fontSize=20;rounded=0;" vertex="1" parent="67D5E8ITKbRi9ClhXfx1-4">
          <mxGeometry width="40" height="30" as="geometry">
            <mxRectangle width="40" height="30" as="alternateBounds" />
          </mxGeometry>
        </mxCell>
        <mxCell id="67D5E8ITKbRi9ClhXfx1-6" value="id_persona" style="shape=partialRectangle;connectable=0;fillColor=none;top=0;left=0;bottom=0;right=0;align=left;spacingLeft=6;overflow=hidden;whiteSpace=wrap;html=1;hachureGap=4;fontFamily=Architects Daughter;fontSource=https%3A%2F%2Ffonts.googleapis.com%2Fcss%3Ffamily%3DArchitects%2BDaughter;fontSize=20;rounded=0;" vertex="1" parent="67D5E8ITKbRi9ClhXfx1-4">
          <mxGeometry x="40" width="140" height="30" as="geometry">
            <mxRectangle width="140" height="30" as="alternateBounds" />
          </mxGeometry>
        </mxCell>
        <mxCell id="67D5E8ITKbRi9ClhXfx1-13" value="empleados" style="shape=table;startSize=30;container=1;collapsible=1;childLayout=tableLayout;fixedRows=1;rowLines=0;fontStyle=1;align=center;resizeLast=1;html=1;hachureGap=4;fontFamily=Architects Daughter;fontSource=https%3A%2F%2Ffonts.googleapis.com%2Fcss%3Ffamily%3DArchitects%2BDaughter;fontSize=20;rounded=0;" vertex="1" parent="5fCRp2MowrQQEJdSjkWT-1">
          <mxGeometry x="470" y="140" width="180" height="60" as="geometry" />
        </mxCell>
        <mxCell id="67D5E8ITKbRi9ClhXfx1-14" value="" style="shape=tableRow;horizontal=0;startSize=0;swimlaneHead=0;swimlaneBody=0;fillColor=none;collapsible=0;dropTarget=0;points=[[0,0.5],[1,0.5]];portConstraint=eastwest;top=0;left=0;right=0;bottom=0;hachureGap=4;fontFamily=Architects Daughter;fontSource=https%3A%2F%2Ffonts.googleapis.com%2Fcss%3Ffamily%3DArchitects%2BDaughter;fontSize=20;rounded=0;" vertex="1" parent="67D5E8ITKbRi9ClhXfx1-13">
          <mxGeometry y="30" width="180" height="30" as="geometry" />
        </mxCell>
        <mxCell id="67D5E8ITKbRi9ClhXfx1-15" value="FK" style="shape=partialRectangle;connectable=0;fillColor=none;top=0;left=0;bottom=0;right=0;editable=1;overflow=hidden;whiteSpace=wrap;html=1;hachureGap=4;fontFamily=Architects Daughter;fontSource=https%3A%2F%2Ffonts.googleapis.com%2Fcss%3Ffamily%3DArchitects%2BDaughter;fontSize=20;rounded=0;" vertex="1" parent="67D5E8ITKbRi9ClhXfx1-14">
          <mxGeometry width="40" height="30" as="geometry">
            <mxRectangle width="40" height="30" as="alternateBounds" />
          </mxGeometry>
        </mxCell>
        <mxCell id="67D5E8ITKbRi9ClhXfx1-16" value="id_persona" style="shape=partialRectangle;connectable=0;fillColor=none;top=0;left=0;bottom=0;right=0;align=left;spacingLeft=6;overflow=hidden;whiteSpace=wrap;html=1;hachureGap=4;fontFamily=Architects Daughter;fontSource=https%3A%2F%2Ffonts.googleapis.com%2Fcss%3Ffamily%3DArchitects%2BDaughter;fontSize=20;rounded=0;" vertex="1" parent="67D5E8ITKbRi9ClhXfx1-14">
          <mxGeometry x="40" width="140" height="30" as="geometry">
            <mxRectangle width="140" height="30" as="alternateBounds" />
          </mxGeometry>
        </mxCell>
        <mxCell id="67D5E8ITKbRi9ClhXfx1-18" value="usuarios_reservas" style="shape=table;startSize=30;container=1;collapsible=1;childLayout=tableLayout;fixedRows=1;rowLines=0;fontStyle=1;align=center;resizeLast=1;html=1;hachureGap=4;fontFamily=Architects Daughter;fontSource=https%3A%2F%2Ffonts.googleapis.com%2Fcss%3Ffamily%3DArchitects%2BDaughter;fontSize=20;rounded=0;" vertex="1" parent="5fCRp2MowrQQEJdSjkWT-1">
          <mxGeometry x="760" y="100" width="200" height="120" as="geometry" />
        </mxCell>
        <mxCell id="67D5E8ITKbRi9ClhXfx1-22" value="" style="shape=tableRow;horizontal=0;startSize=0;swimlaneHead=0;swimlaneBody=0;fillColor=none;collapsible=0;dropTarget=0;points=[[0,0.5],[1,0.5]];portConstraint=eastwest;top=0;left=0;right=0;bottom=0;hachureGap=4;fontFamily=Architects Daughter;fontSource=https%3A%2F%2Ffonts.googleapis.com%2Fcss%3Ffamily%3DArchitects%2BDaughter;fontSize=20;rounded=0;" vertex="1" parent="67D5E8ITKbRi9ClhXfx1-18">
          <mxGeometry y="30" width="200" height="30" as="geometry" />
        </mxCell>
        <mxCell id="67D5E8ITKbRi9ClhXfx1-23" value="FK" style="shape=partialRectangle;connectable=0;fillColor=none;top=0;left=0;bottom=0;right=0;editable=1;overflow=hidden;whiteSpace=wrap;html=1;hachureGap=4;fontFamily=Architects Daughter;fontSource=https%3A%2F%2Ffonts.googleapis.com%2Fcss%3Ffamily%3DArchitects%2BDaughter;fontSize=20;rounded=0;" vertex="1" parent="67D5E8ITKbRi9ClhXfx1-22">
          <mxGeometry width="40" height="30" as="geometry">
            <mxRectangle width="40" height="30" as="alternateBounds" />
          </mxGeometry>
        </mxCell>
        <mxCell id="67D5E8ITKbRi9ClhXfx1-24" value="id_usuario" style="shape=partialRectangle;connectable=0;fillColor=none;top=0;left=0;bottom=0;right=0;align=left;spacingLeft=6;overflow=hidden;whiteSpace=wrap;html=1;hachureGap=4;fontFamily=Architects Daughter;fontSource=https%3A%2F%2Ffonts.googleapis.com%2Fcss%3Ffamily%3DArchitects%2BDaughter;fontSize=20;rounded=0;" vertex="1" parent="67D5E8ITKbRi9ClhXfx1-22">
          <mxGeometry x="40" width="160" height="30" as="geometry">
            <mxRectangle width="160" height="30" as="alternateBounds" />
          </mxGeometry>
        </mxCell>
        <mxCell id="67D5E8ITKbRi9ClhXfx1-25" value="" style="shape=tableRow;horizontal=0;startSize=0;swimlaneHead=0;swimlaneBody=0;fillColor=none;collapsible=0;dropTarget=0;points=[[0,0.5],[1,0.5]];portConstraint=eastwest;top=0;left=0;right=0;bottom=0;hachureGap=4;fontFamily=Architects Daughter;fontSource=https%3A%2F%2Ffonts.googleapis.com%2Fcss%3Ffamily%3DArchitects%2BDaughter;fontSize=20;rounded=0;" vertex="1" parent="67D5E8ITKbRi9ClhXfx1-18">
          <mxGeometry y="60" width="200" height="30" as="geometry" />
        </mxCell>
        <mxCell id="67D5E8ITKbRi9ClhXfx1-26" value="FK" style="shape=partialRectangle;connectable=0;fillColor=none;top=0;left=0;bottom=0;right=0;editable=1;overflow=hidden;whiteSpace=wrap;html=1;hachureGap=4;fontFamily=Architects Daughter;fontSource=https%3A%2F%2Ffonts.googleapis.com%2Fcss%3Ffamily%3DArchitects%2BDaughter;fontSize=20;rounded=0;" vertex="1" parent="67D5E8ITKbRi9ClhXfx1-25">
          <mxGeometry width="40" height="30" as="geometry">
            <mxRectangle width="40" height="30" as="alternateBounds" />
          </mxGeometry>
        </mxCell>
        <mxCell id="67D5E8ITKbRi9ClhXfx1-27" value="id_reserva" style="shape=partialRectangle;connectable=0;fillColor=none;top=0;left=0;bottom=0;right=0;align=left;spacingLeft=6;overflow=hidden;whiteSpace=wrap;html=1;hachureGap=4;fontFamily=Architects Daughter;fontSource=https%3A%2F%2Ffonts.googleapis.com%2Fcss%3Ffamily%3DArchitects%2BDaughter;fontSize=20;rounded=0;" vertex="1" parent="67D5E8ITKbRi9ClhXfx1-25">
          <mxGeometry x="40" width="160" height="30" as="geometry">
            <mxRectangle width="160" height="30" as="alternateBounds" />
          </mxGeometry>
        </mxCell>
        <mxCell id="_Tym_SOiy43Ft3TQ0O4E-3" value="" style="shape=tableRow;horizontal=0;startSize=0;swimlaneHead=0;swimlaneBody=0;fillColor=none;collapsible=0;dropTarget=0;points=[[0,0.5],[1,0.5]];portConstraint=eastwest;top=0;left=0;right=0;bottom=0;hachureGap=4;fontFamily=Architects Daughter;fontSource=https%3A%2F%2Ffonts.googleapis.com%2Fcss%3Ffamily%3DArchitects%2BDaughter;fontSize=20;rounded=0;" vertex="1" parent="67D5E8ITKbRi9ClhXfx1-18">
          <mxGeometry y="90" width="200" height="30" as="geometry" />
        </mxCell>
        <mxCell id="_Tym_SOiy43Ft3TQ0O4E-4" value="" style="shape=partialRectangle;connectable=0;fillColor=none;top=0;left=0;bottom=0;right=0;editable=1;overflow=hidden;whiteSpace=wrap;html=1;hachureGap=4;fontFamily=Architects Daughter;fontSource=https%3A%2F%2Ffonts.googleapis.com%2Fcss%3Ffamily%3DArchitects%2BDaughter;fontSize=20;rounded=0;" vertex="1" parent="_Tym_SOiy43Ft3TQ0O4E-3">
          <mxGeometry width="40" height="30" as="geometry">
            <mxRectangle width="40" height="30" as="alternateBounds" />
          </mxGeometry>
        </mxCell>
        <mxCell id="_Tym_SOiy43Ft3TQ0O4E-5" value="calificacion" style="shape=partialRectangle;connectable=0;fillColor=none;top=0;left=0;bottom=0;right=0;align=left;spacingLeft=6;overflow=hidden;whiteSpace=wrap;html=1;hachureGap=4;fontFamily=Architects Daughter;fontSource=https%3A%2F%2Ffonts.googleapis.com%2Fcss%3Ffamily%3DArchitects%2BDaughter;fontSize=20;rounded=0;" vertex="1" parent="_Tym_SOiy43Ft3TQ0O4E-3">
          <mxGeometry x="40" width="160" height="30" as="geometry">
            <mxRectangle width="160" height="30" as="alternateBounds" />
          </mxGeometry>
        </mxCell>
        <mxCell id="SZG_i5WuCbyJq5syotVR-5" value="" style="edgeStyle=entityRelationEdgeStyle;fontSize=12;html=1;endArrow=ERmandOne;startArrow=ERmandOne;rounded=0;entryX=0;entryY=0.25;entryDx=0;entryDy=0;exitX=1;exitY=0.5;exitDx=0;exitDy=0;" edge="1" parent="5fCRp2MowrQQEJdSjkWT-1" source="bwWEXVRHiR8TQFQIUz_v-15" target="67D5E8ITKbRi9ClhXfx1-0">
          <mxGeometry width="100" height="100" relative="1" as="geometry">
            <mxPoint x="440" y="-50" as="sourcePoint" />
            <mxPoint x="1790" y="30" as="targetPoint" />
          </mxGeometry>
        </mxCell>
        <mxCell id="SZG_i5WuCbyJq5syotVR-6" value="" style="edgeStyle=entityRelationEdgeStyle;fontSize=12;html=1;endArrow=ERmandOne;startArrow=ERmandOne;rounded=0;entryX=0;entryY=0.25;entryDx=0;entryDy=0;exitX=1;exitY=0.5;exitDx=0;exitDy=0;" edge="1" parent="5fCRp2MowrQQEJdSjkWT-1" source="bwWEXVRHiR8TQFQIUz_v-15" target="67D5E8ITKbRi9ClhXfx1-13">
          <mxGeometry width="100" height="100" relative="1" as="geometry">
            <mxPoint x="450" y="-50" as="sourcePoint" />
            <mxPoint x="1605" y="-145" as="targetPoint" />
          </mxGeometry>
        </mxCell>
        <mxCell id="SZG_i5WuCbyJq5syotVR-7" value="" style="edgeStyle=entityRelationEdgeStyle;fontSize=12;html=1;endArrow=ERoneToMany;rounded=0;hachureGap=4;fontFamily=Architects Daughter;fontSource=https%3A%2F%2Ffonts.googleapis.com%2Fcss%3Ffamily%3DArchitects%2BDaughter;exitX=1;exitY=0.25;exitDx=0;exitDy=0;entryX=0;entryY=0.25;entryDx=0;entryDy=0;" edge="1" parent="5fCRp2MowrQQEJdSjkWT-1" source="67D5E8ITKbRi9ClhXfx1-0" target="67D5E8ITKbRi9ClhXfx1-18">
          <mxGeometry width="100" height="100" relative="1" as="geometry">
            <mxPoint x="1425" y="-145" as="sourcePoint" />
            <mxPoint x="790" y="-205" as="targetPoint" />
          </mxGeometry>
        </mxCell>
        <mxCell id="wb87ZEJWJvqxTqGd-ZsD-0" value="prestamos" style="shape=table;startSize=30;container=1;collapsible=1;childLayout=tableLayout;fixedRows=1;rowLines=0;fontStyle=1;align=center;resizeLast=1;html=1;hachureGap=4;fontFamily=Architects Daughter;fontSource=https%3A%2F%2Ffonts.googleapis.com%2Fcss%3Ffamily%3DArchitects%2BDaughter;fontSize=20;rounded=0;" vertex="1" parent="5fCRp2MowrQQEJdSjkWT-1">
          <mxGeometry x="450" y="250" width="210" height="180" as="geometry" />
        </mxCell>
        <mxCell id="wb87ZEJWJvqxTqGd-ZsD-1" value="" style="shape=tableRow;horizontal=0;startSize=0;swimlaneHead=0;swimlaneBody=0;fillColor=none;collapsible=0;dropTarget=0;points=[[0,0.5],[1,0.5]];portConstraint=eastwest;top=0;left=0;right=0;bottom=1;hachureGap=4;fontFamily=Architects Daughter;fontSource=https%3A%2F%2Ffonts.googleapis.com%2Fcss%3Ffamily%3DArchitects%2BDaughter;fontSize=20;rounded=0;" vertex="1" parent="wb87ZEJWJvqxTqGd-ZsD-0">
          <mxGeometry y="30" width="210" height="30" as="geometry" />
        </mxCell>
        <mxCell id="wb87ZEJWJvqxTqGd-ZsD-2" value="PK" style="shape=partialRectangle;connectable=0;fillColor=none;top=0;left=0;bottom=0;right=0;fontStyle=1;overflow=hidden;whiteSpace=wrap;html=1;hachureGap=4;fontFamily=Architects Daughter;fontSource=https%3A%2F%2Ffonts.googleapis.com%2Fcss%3Ffamily%3DArchitects%2BDaughter;fontSize=20;rounded=0;" vertex="1" parent="wb87ZEJWJvqxTqGd-ZsD-1">
          <mxGeometry width="40" height="30" as="geometry">
            <mxRectangle width="40" height="30" as="alternateBounds" />
          </mxGeometry>
        </mxCell>
        <mxCell id="wb87ZEJWJvqxTqGd-ZsD-3" value="id_prestamo" style="shape=partialRectangle;connectable=0;fillColor=none;top=0;left=0;bottom=0;right=0;align=left;spacingLeft=6;fontStyle=5;overflow=hidden;whiteSpace=wrap;html=1;hachureGap=4;fontFamily=Architects Daughter;fontSource=https%3A%2F%2Ffonts.googleapis.com%2Fcss%3Ffamily%3DArchitects%2BDaughter;fontSize=20;rounded=0;" vertex="1" parent="wb87ZEJWJvqxTqGd-ZsD-1">
          <mxGeometry x="40" width="170" height="30" as="geometry">
            <mxRectangle width="170" height="30" as="alternateBounds" />
          </mxGeometry>
        </mxCell>
        <mxCell id="wb87ZEJWJvqxTqGd-ZsD-4" value="" style="shape=tableRow;horizontal=0;startSize=0;swimlaneHead=0;swimlaneBody=0;fillColor=none;collapsible=0;dropTarget=0;points=[[0,0.5],[1,0.5]];portConstraint=eastwest;top=0;left=0;right=0;bottom=0;hachureGap=4;fontFamily=Architects Daughter;fontSource=https%3A%2F%2Ffonts.googleapis.com%2Fcss%3Ffamily%3DArchitects%2BDaughter;fontSize=20;rounded=0;" vertex="1" parent="wb87ZEJWJvqxTqGd-ZsD-0">
          <mxGeometry y="60" width="210" height="30" as="geometry" />
        </mxCell>
        <mxCell id="wb87ZEJWJvqxTqGd-ZsD-5" value="" style="shape=partialRectangle;connectable=0;fillColor=none;top=0;left=0;bottom=0;right=0;editable=1;overflow=hidden;whiteSpace=wrap;html=1;hachureGap=4;fontFamily=Architects Daughter;fontSource=https%3A%2F%2Ffonts.googleapis.com%2Fcss%3Ffamily%3DArchitects%2BDaughter;fontSize=20;rounded=0;" vertex="1" parent="wb87ZEJWJvqxTqGd-ZsD-4">
          <mxGeometry width="40" height="30" as="geometry">
            <mxRectangle width="40" height="30" as="alternateBounds" />
          </mxGeometry>
        </mxCell>
        <mxCell id="wb87ZEJWJvqxTqGd-ZsD-6" value="hora_entrega" style="shape=partialRectangle;connectable=0;fillColor=none;top=0;left=0;bottom=0;right=0;align=left;spacingLeft=6;overflow=hidden;whiteSpace=wrap;html=1;hachureGap=4;fontFamily=Architects Daughter;fontSource=https%3A%2F%2Ffonts.googleapis.com%2Fcss%3Ffamily%3DArchitects%2BDaughter;fontSize=20;rounded=0;" vertex="1" parent="wb87ZEJWJvqxTqGd-ZsD-4">
          <mxGeometry x="40" width="170" height="30" as="geometry">
            <mxRectangle width="170" height="30" as="alternateBounds" />
          </mxGeometry>
        </mxCell>
        <mxCell id="wb87ZEJWJvqxTqGd-ZsD-7" value="" style="shape=tableRow;horizontal=0;startSize=0;swimlaneHead=0;swimlaneBody=0;fillColor=none;collapsible=0;dropTarget=0;points=[[0,0.5],[1,0.5]];portConstraint=eastwest;top=0;left=0;right=0;bottom=0;hachureGap=4;fontFamily=Architects Daughter;fontSource=https%3A%2F%2Ffonts.googleapis.com%2Fcss%3Ffamily%3DArchitects%2BDaughter;fontSize=20;rounded=0;" vertex="1" parent="wb87ZEJWJvqxTqGd-ZsD-0">
          <mxGeometry y="90" width="210" height="30" as="geometry" />
        </mxCell>
        <mxCell id="wb87ZEJWJvqxTqGd-ZsD-8" value="" style="shape=partialRectangle;connectable=0;fillColor=none;top=0;left=0;bottom=0;right=0;editable=1;overflow=hidden;whiteSpace=wrap;html=1;hachureGap=4;fontFamily=Architects Daughter;fontSource=https%3A%2F%2Ffonts.googleapis.com%2Fcss%3Ffamily%3DArchitects%2BDaughter;fontSize=20;rounded=0;" vertex="1" parent="wb87ZEJWJvqxTqGd-ZsD-7">
          <mxGeometry width="40" height="30" as="geometry">
            <mxRectangle width="40" height="30" as="alternateBounds" />
          </mxGeometry>
        </mxCell>
        <mxCell id="wb87ZEJWJvqxTqGd-ZsD-9" value="hora_devolucion" style="shape=partialRectangle;connectable=0;fillColor=none;top=0;left=0;bottom=0;right=0;align=left;spacingLeft=6;overflow=hidden;whiteSpace=wrap;html=1;hachureGap=4;fontFamily=Architects Daughter;fontSource=https%3A%2F%2Ffonts.googleapis.com%2Fcss%3Ffamily%3DArchitects%2BDaughter;fontSize=20;rounded=0;" vertex="1" parent="wb87ZEJWJvqxTqGd-ZsD-7">
          <mxGeometry x="40" width="170" height="30" as="geometry">
            <mxRectangle width="170" height="30" as="alternateBounds" />
          </mxGeometry>
        </mxCell>
        <mxCell id="wb87ZEJWJvqxTqGd-ZsD-10" value="" style="shape=tableRow;horizontal=0;startSize=0;swimlaneHead=0;swimlaneBody=0;fillColor=none;collapsible=0;dropTarget=0;points=[[0,0.5],[1,0.5]];portConstraint=eastwest;top=0;left=0;right=0;bottom=0;hachureGap=4;fontFamily=Architects Daughter;fontSource=https%3A%2F%2Ffonts.googleapis.com%2Fcss%3Ffamily%3DArchitects%2BDaughter;fontSize=20;rounded=0;" vertex="1" parent="wb87ZEJWJvqxTqGd-ZsD-0">
          <mxGeometry y="120" width="210" height="30" as="geometry" />
        </mxCell>
        <mxCell id="wb87ZEJWJvqxTqGd-ZsD-11" value="" style="shape=partialRectangle;connectable=0;fillColor=none;top=0;left=0;bottom=0;right=0;editable=1;overflow=hidden;whiteSpace=wrap;html=1;hachureGap=4;fontFamily=Architects Daughter;fontSource=https%3A%2F%2Ffonts.googleapis.com%2Fcss%3Ffamily%3DArchitects%2BDaughter;fontSize=20;rounded=0;" vertex="1" parent="wb87ZEJWJvqxTqGd-ZsD-10">
          <mxGeometry width="40" height="30" as="geometry">
            <mxRectangle width="40" height="30" as="alternateBounds" />
          </mxGeometry>
        </mxCell>
        <mxCell id="wb87ZEJWJvqxTqGd-ZsD-12" value="fallo" style="shape=partialRectangle;connectable=0;fillColor=none;top=0;left=0;bottom=0;right=0;align=left;spacingLeft=6;overflow=hidden;whiteSpace=wrap;html=1;hachureGap=4;fontFamily=Architects Daughter;fontSource=https%3A%2F%2Ffonts.googleapis.com%2Fcss%3Ffamily%3DArchitects%2BDaughter;fontSize=20;rounded=0;" vertex="1" parent="wb87ZEJWJvqxTqGd-ZsD-10">
          <mxGeometry x="40" width="170" height="30" as="geometry">
            <mxRectangle width="170" height="30" as="alternateBounds" />
          </mxGeometry>
        </mxCell>
        <mxCell id="AYlqEimF5Jc2JHBmSOLI-17" value="" style="shape=tableRow;horizontal=0;startSize=0;swimlaneHead=0;swimlaneBody=0;fillColor=none;collapsible=0;dropTarget=0;points=[[0,0.5],[1,0.5]];portConstraint=eastwest;top=0;left=0;right=0;bottom=0;hachureGap=4;fontFamily=Architects Daughter;fontSource=https%3A%2F%2Ffonts.googleapis.com%2Fcss%3Ffamily%3DArchitects%2BDaughter;fontSize=20;rounded=0;" vertex="1" parent="wb87ZEJWJvqxTqGd-ZsD-0">
          <mxGeometry y="150" width="210" height="30" as="geometry" />
        </mxCell>
        <mxCell id="AYlqEimF5Jc2JHBmSOLI-18" value="FK" style="shape=partialRectangle;connectable=0;fillColor=none;top=0;left=0;bottom=0;right=0;editable=1;overflow=hidden;whiteSpace=wrap;html=1;hachureGap=4;fontFamily=Architects Daughter;fontSource=https%3A%2F%2Ffonts.googleapis.com%2Fcss%3Ffamily%3DArchitects%2BDaughter;fontSize=20;rounded=0;" vertex="1" parent="AYlqEimF5Jc2JHBmSOLI-17">
          <mxGeometry width="40" height="30" as="geometry">
            <mxRectangle width="40" height="30" as="alternateBounds" />
          </mxGeometry>
        </mxCell>
        <mxCell id="AYlqEimF5Jc2JHBmSOLI-19" value="id_recurso" style="shape=partialRectangle;connectable=0;fillColor=none;top=0;left=0;bottom=0;right=0;align=left;spacingLeft=6;overflow=hidden;whiteSpace=wrap;html=1;hachureGap=4;fontFamily=Architects Daughter;fontSource=https%3A%2F%2Ffonts.googleapis.com%2Fcss%3Ffamily%3DArchitects%2BDaughter;fontSize=20;rounded=0;" vertex="1" parent="AYlqEimF5Jc2JHBmSOLI-17">
          <mxGeometry x="40" width="170" height="30" as="geometry">
            <mxRectangle width="170" height="30" as="alternateBounds" />
          </mxGeometry>
        </mxCell>
        <mxCell id="5bIh7az-aKYYjLq0D_A--0" value="empleados_prestamos" style="shape=table;startSize=30;container=1;collapsible=1;childLayout=tableLayout;fixedRows=1;rowLines=0;fontStyle=1;align=center;resizeLast=1;html=1;hachureGap=4;fontFamily=Architects Daughter;fontSource=https%3A%2F%2Ffonts.googleapis.com%2Fcss%3Ffamily%3DArchitects%2BDaughter;fontSize=20;rounded=0;" vertex="1" parent="5fCRp2MowrQQEJdSjkWT-1">
          <mxGeometry x="100" y="240" width="277.5" height="120" as="geometry" />
        </mxCell>
        <mxCell id="5bIh7az-aKYYjLq0D_A--4" value="" style="shape=tableRow;horizontal=0;startSize=0;swimlaneHead=0;swimlaneBody=0;fillColor=none;collapsible=0;dropTarget=0;points=[[0,0.5],[1,0.5]];portConstraint=eastwest;top=0;left=0;right=0;bottom=0;hachureGap=4;fontFamily=Architects Daughter;fontSource=https%3A%2F%2Ffonts.googleapis.com%2Fcss%3Ffamily%3DArchitects%2BDaughter;fontSize=20;rounded=0;" vertex="1" parent="5bIh7az-aKYYjLq0D_A--0">
          <mxGeometry y="30" width="277.5" height="30" as="geometry" />
        </mxCell>
        <mxCell id="5bIh7az-aKYYjLq0D_A--5" value="FK" style="shape=partialRectangle;connectable=0;fillColor=none;top=0;left=0;bottom=0;right=0;editable=1;overflow=hidden;whiteSpace=wrap;html=1;hachureGap=4;fontFamily=Architects Daughter;fontSource=https%3A%2F%2Ffonts.googleapis.com%2Fcss%3Ffamily%3DArchitects%2BDaughter;fontSize=20;rounded=0;" vertex="1" parent="5bIh7az-aKYYjLq0D_A--4">
          <mxGeometry width="40" height="30" as="geometry">
            <mxRectangle width="40" height="30" as="alternateBounds" />
          </mxGeometry>
        </mxCell>
        <mxCell id="5bIh7az-aKYYjLq0D_A--6" value="id_empleado_entrega" style="shape=partialRectangle;connectable=0;fillColor=none;top=0;left=0;bottom=0;right=0;align=left;spacingLeft=6;overflow=hidden;whiteSpace=wrap;html=1;hachureGap=4;fontFamily=Architects Daughter;fontSource=https%3A%2F%2Ffonts.googleapis.com%2Fcss%3Ffamily%3DArchitects%2BDaughter;fontSize=20;rounded=0;" vertex="1" parent="5bIh7az-aKYYjLq0D_A--4">
          <mxGeometry x="40" width="237.5" height="30" as="geometry">
            <mxRectangle width="237.5" height="30" as="alternateBounds" />
          </mxGeometry>
        </mxCell>
        <mxCell id="5bIh7az-aKYYjLq0D_A--7" value="" style="shape=tableRow;horizontal=0;startSize=0;swimlaneHead=0;swimlaneBody=0;fillColor=none;collapsible=0;dropTarget=0;points=[[0,0.5],[1,0.5]];portConstraint=eastwest;top=0;left=0;right=0;bottom=0;hachureGap=4;fontFamily=Architects Daughter;fontSource=https%3A%2F%2Ffonts.googleapis.com%2Fcss%3Ffamily%3DArchitects%2BDaughter;fontSize=20;rounded=0;" vertex="1" parent="5bIh7az-aKYYjLq0D_A--0">
          <mxGeometry y="60" width="277.5" height="30" as="geometry" />
        </mxCell>
        <mxCell id="5bIh7az-aKYYjLq0D_A--8" value="FK" style="shape=partialRectangle;connectable=0;fillColor=none;top=0;left=0;bottom=0;right=0;editable=1;overflow=hidden;whiteSpace=wrap;html=1;hachureGap=4;fontFamily=Architects Daughter;fontSource=https%3A%2F%2Ffonts.googleapis.com%2Fcss%3Ffamily%3DArchitects%2BDaughter;fontSize=20;rounded=0;" vertex="1" parent="5bIh7az-aKYYjLq0D_A--7">
          <mxGeometry width="40" height="30" as="geometry">
            <mxRectangle width="40" height="30" as="alternateBounds" />
          </mxGeometry>
        </mxCell>
        <mxCell id="5bIh7az-aKYYjLq0D_A--9" value="id_empleado_devolucion" style="shape=partialRectangle;connectable=0;fillColor=none;top=0;left=0;bottom=0;right=0;align=left;spacingLeft=6;overflow=hidden;whiteSpace=wrap;html=1;hachureGap=4;fontFamily=Architects Daughter;fontSource=https%3A%2F%2Ffonts.googleapis.com%2Fcss%3Ffamily%3DArchitects%2BDaughter;fontSize=20;rounded=0;" vertex="1" parent="5bIh7az-aKYYjLq0D_A--7">
          <mxGeometry x="40" width="237.5" height="30" as="geometry">
            <mxRectangle width="237.5" height="30" as="alternateBounds" />
          </mxGeometry>
        </mxCell>
        <mxCell id="_Tym_SOiy43Ft3TQ0O4E-0" value="" style="shape=tableRow;horizontal=0;startSize=0;swimlaneHead=0;swimlaneBody=0;fillColor=none;collapsible=0;dropTarget=0;points=[[0,0.5],[1,0.5]];portConstraint=eastwest;top=0;left=0;right=0;bottom=0;hachureGap=4;fontFamily=Architects Daughter;fontSource=https%3A%2F%2Ffonts.googleapis.com%2Fcss%3Ffamily%3DArchitects%2BDaughter;fontSize=20;rounded=0;" vertex="1" parent="5bIh7az-aKYYjLq0D_A--0">
          <mxGeometry y="90" width="277.5" height="30" as="geometry" />
        </mxCell>
        <mxCell id="_Tym_SOiy43Ft3TQ0O4E-1" value="FK" style="shape=partialRectangle;connectable=0;fillColor=none;top=0;left=0;bottom=0;right=0;editable=1;overflow=hidden;whiteSpace=wrap;html=1;hachureGap=4;fontFamily=Architects Daughter;fontSource=https%3A%2F%2Ffonts.googleapis.com%2Fcss%3Ffamily%3DArchitects%2BDaughter;fontSize=20;rounded=0;" vertex="1" parent="_Tym_SOiy43Ft3TQ0O4E-0">
          <mxGeometry width="40" height="30" as="geometry">
            <mxRectangle width="40" height="30" as="alternateBounds" />
          </mxGeometry>
        </mxCell>
        <mxCell id="_Tym_SOiy43Ft3TQ0O4E-2" value="id_prestamo" style="shape=partialRectangle;connectable=0;fillColor=none;top=0;left=0;bottom=0;right=0;align=left;spacingLeft=6;overflow=hidden;whiteSpace=wrap;html=1;hachureGap=4;fontFamily=Architects Daughter;fontSource=https%3A%2F%2Ffonts.googleapis.com%2Fcss%3Ffamily%3DArchitects%2BDaughter;fontSize=20;rounded=0;" vertex="1" parent="_Tym_SOiy43Ft3TQ0O4E-0">
          <mxGeometry x="40" width="237.5" height="30" as="geometry">
            <mxRectangle width="237.5" height="30" as="alternateBounds" />
          </mxGeometry>
        </mxCell>
        <mxCell id="5bIh7az-aKYYjLq0D_A--13" value="" style="edgeStyle=entityRelationEdgeStyle;fontSize=12;html=1;endArrow=ERoneToMany;rounded=0;entryX=1;entryY=0.5;entryDx=0;entryDy=0;exitX=0;exitY=0.5;exitDx=0;exitDy=0;" edge="1" parent="5fCRp2MowrQQEJdSjkWT-1" source="67D5E8ITKbRi9ClhXfx1-14" target="5bIh7az-aKYYjLq0D_A--4">
          <mxGeometry width="100" height="100" relative="1" as="geometry">
            <mxPoint x="330" y="300" as="sourcePoint" />
            <mxPoint x="430" y="200" as="targetPoint" />
          </mxGeometry>
        </mxCell>
        <mxCell id="5bIh7az-aKYYjLq0D_A--14" value="" style="edgeStyle=entityRelationEdgeStyle;fontSize=12;html=1;endArrow=ERoneToMany;rounded=0;entryX=1;entryY=0.5;entryDx=0;entryDy=0;exitX=0;exitY=0.5;exitDx=0;exitDy=0;" edge="1" parent="5fCRp2MowrQQEJdSjkWT-1" source="wb87ZEJWJvqxTqGd-ZsD-1" target="5bIh7az-aKYYjLq0D_A--7">
          <mxGeometry width="100" height="100" relative="1" as="geometry">
            <mxPoint x="680" y="35" as="sourcePoint" />
            <mxPoint x="740" y="180" as="targetPoint" />
          </mxGeometry>
        </mxCell>
        <mxCell id="AYlqEimF5Jc2JHBmSOLI-3" value="" style="edgeStyle=entityRelationEdgeStyle;fontSize=12;html=1;endArrow=ERoneToMany;rounded=0;hachureGap=4;fontFamily=Architects Daughter;fontSource=https%3A%2F%2Ffonts.googleapis.com%2Fcss%3Ffamily%3DArchitects%2BDaughter;entryX=1;entryY=0.5;entryDx=0;entryDy=0;exitX=0.001;exitY=0.103;exitDx=0;exitDy=0;exitPerimeter=0;" edge="1" parent="5fCRp2MowrQQEJdSjkWT-1" source="bwWEXVRHiR8TQFQIUz_v-0" target="67D5E8ITKbRi9ClhXfx1-25">
          <mxGeometry width="100" height="100" relative="1" as="geometry">
            <mxPoint x="1150" y="-40" as="sourcePoint" />
            <mxPoint x="800" y="-195" as="targetPoint" />
          </mxGeometry>
        </mxCell>
        <mxCell id="tQiJv_-tevD-tBX1k9tv-0" value="" style="edgeStyle=entityRelationEdgeStyle;fontSize=12;html=1;endArrow=ERmandOne;startArrow=ERmandOne;rounded=0;exitX=1;exitY=0.5;exitDx=0;exitDy=0;entryX=-0.002;entryY=0.105;entryDx=0;entryDy=0;entryPerimeter=0;" edge="1" parent="5fCRp2MowrQQEJdSjkWT-1" source="AYlqEimF5Jc2JHBmSOLI-17" target="4H0bfWlm6Tqa2H4D3_Ia-13">
          <mxGeometry width="100" height="100" relative="1" as="geometry">
            <mxPoint x="800" y="400" as="sourcePoint" />
            <mxPoint x="900" y="300" as="targetPoint" />
          </mxGeometry>
        </mxCell>
      </root>
    </mxGraphModel>
  </diagram>
</mxfile>
